<?xml version="1.0" encoding="UTF-8"?><svg id="a" xmlns="http://www.w3.org/2000/svg" width="512" height="479.79" viewBox="0 0 512 479.79"><path d="M512,409.8c-2.93,7.16-4.82,15.01-9.02,21.33-8.39,12.64-21.23,18.4-36.27,18.6-19.66,.26-39.32,.15-58.98,.04-9.46-.05-15.68-6.25-15.7-15.73-.07-49.49-.07-98.98,0-148.47,.01-9.67,6.31-15.7,16.18-15.76,14.32-.09,28.65-.02,43-.02,.27-.55,.66-.97,.67-1.4,1.97-52.18-12.33-98.95-46.14-139.29-1.94-2.32-3.43-2.73-6.26-1.46-14.53,6.54-28.82,5.09-41.9-3.41-14.98-9.73-29.93-19.32-47.11-24.75-51.79-16.39-100.85-10.95-146.71,18.76-8.98,5.82-17.57,12.66-28.77,12.61-7.34-.03-14.81-1.29-21.97-3.03-3.46-.84-5.16-.72-7.45,2.05-30.85,37.32-45.74,80.24-45.6,128.53,.01,3.63,0,7.25,0,11.39,11.72,0,23,0,34.28,0,3.67,0,7.34-.12,10.99,.06,8.32,.39,14.28,6.39,14.68,14.73,.14,2.83,.05,5.66,.05,8.5,0,46.16,0,92.32,0,138.47,0,12.74-5.52,18.26-18.23,18.27-17.99,.01-35.99-.24-53.98,.06-24.63,.42-44.02-16.2-47.16-38.71-.07-.47-.41-.91-.63-1.36,0-33.67,0-67.34,0-101.01,.58-1.89,1.2-3.76,1.72-5.66,3.65-13.12,11.66-22.7,23.91-28.48,3.36-1.59,4.53-3.31,4.46-7.04-.4-20.03,.7-39.95,4.96-59.61,7.6-35.12,22.64-66.65,45.38-94.49,1.76-2.15,3.44-4.36,5.74-7.29-3.29-2.95-6.38-5.48-9.2-8.28-8.96-8.91-8.91-17.13,.26-25.76C136.04,16.86,205.67-6.93,285.89,1.74c58.14,6.28,108,30.81,149.96,71.47,7.64,7.41,7.77,16.07,.21,23.64-3.26,3.26-7.05,5.99-10.74,9.08,13.63,15.87,24.35,31.48,32.86,48.54,10.39,20.84,18.07,42.67,20.75,65.83,1.85,16.01,2.19,32.19,2.97,48.31,.14,2.87,1.17,4.06,3.52,5.63,5.87,3.94,12.44,7.72,16.53,13.2,4.61,6.18,6.8,14.16,10.04,21.35v101.01Z"/><path d="M211,359.8c0-34.5-.04-69,.02-103.5,.02-11.74,9.63-19.23,19.85-15.57,6.09,2.18,9.34,6.71,10.04,13.07,.18,1.65,.09,3.33,.09,5,0,67.34,0,134.67,0,202.01,0,12-5.52,18.98-14.99,18.98-9.47,0-15-6.98-15-18.97,0-33.67,0-67.34,0-101Z"/><path d="M301,359.79c0,34.5,.04,69-.02,103.5-.02,11.74-9.63,19.23-19.85,15.57-6.09-2.18-9.34-6.71-10.04-13.07-.18-1.65-.09-3.33-.09-5,0-67.34,0-134.67,0-202.01,0-12,5.51-18.98,14.99-18.98,9.47,0,15,6.98,15,18.97,0,33.67,0,67.34,0,101Z"/><path d="M181,359.79c0,14.33,.03,28.67-.01,43-.03,10.17-6.08,16.97-14.99,16.97-8.91,0-14.98-6.8-14.99-16.97-.03-28.67-.03-57.33,0-86,.01-10.17,6.08-16.97,14.99-16.97,8.91,0,14.96,6.8,14.99,16.97,.04,14.33,.01,28.67,.01,43Z"/><path d="M331,359.79c0-14.33-.03-28.67,.01-43,.03-10.18,6.08-16.97,14.99-16.98,8.91,0,14.98,6.8,14.99,16.97,.03,28.67,.03,57.33,0,86-.01,10.18-6.08,16.97-14.98,16.98-8.91,0-14.96-6.8-14.99-16.97-.04-14.33-.01-28.67-.01-43Z"/></svg>