<svg id="a" xmlns="http://www.w3.org/2000/svg" width="383.29" height="383.24" viewBox="0 0 383.29 383.24"><path d="M173.7,383.24c-7.07-1.93-14.04-3.99-20.11-8.41-18.96-13.8-24.43-39.31-12.58-59.25,12.05-20.28,36.9-27.76,58.2-17.51,.77,.37,1.53,.77,2.94,1.48v-4.6c0-48.12,0-96.24,0-144.36,0-9.27,2.19-12.21,10.98-14.7,50.88-14.41,101.77-28.81,152.65-43.21,9.4-2.66,12.68-1.37,17.51,6.87v199.86c-.26,.8-.59,1.59-.78,2.4-3.94,17.18-14.02,29.08-30.9,34.37-16.61,5.2-31.58,1.36-44.27-10.47-14.3-13.33-17.87-34.51-9.17-52.23,8.61-17.51,27.88-27.6,47.12-24.24,5.26,.92,10.3,3.04,15.41,4.6v-91.43c-45.44,12.84-90.67,25.62-136.11,38.46v4.62c0,44.14,.03,88.29-.02,132.43-.02,19.61-12.06,36.58-30.33,42.85-3.04,1.04-6.22,1.66-9.33,2.48h-11.23Z"/><path d="M89.87,48.99c0,1.87,0,3.36,0,4.86,0,57.26,.03,114.51-.02,171.77-.02,21.37-13.93,38.95-34.64,44.08-24.22,5.99-49.07-9.86-54.28-34.62-5.15-24.47,11.7-49.2,36.26-53.23,10.37-1.7,16.64-.65,30.22,5.25v-4.41c0-56.01,0-112.02,0-168.03,0-1.25-.04-2.5,.03-3.74,.26-4.98,3.2-8.82,7.82-10.32,4.58-1.49,9.31-.11,12.29,3.96,2.95,4.02,5.74,8.16,8.36,12.4,14.54,23.47,33.74,42.54,55.77,58.84,10.32,7.64,19.14,16.26,24,28.44,14.44,36.16-12.13,76.47-50.76,76.89-7.27,.08-12.43-4.41-12.6-10.94-.16-6.53,4.74-11.22,12.05-11.52,14.51-.59,26.87-9.82,31.21-23.3,4.4-13.67-.05-28.48-11.64-37.12-19.37-14.43-37.65-29.99-53-48.77-.13-.16-.4-.19-1.09-.48Z"/></svg>
