<?xml version="1.0" encoding="utf-8"?>
<!-- Generator: Adobe Illustrator 27.0.0, SVG Export Plug-In . SVG Version: 6.00 Build 0)  -->
<svg version="1.1" id="a" xmlns="http://www.w3.org/2000/svg" xmlns:xlink="http://www.w3.org/1999/xlink" x="0px" y="0px"
	 viewBox="0 0 408.8 408.8" style="enable-background:new 0 0 408.8 408.8;" xml:space="preserve">
<style type="text/css">
	.st0{fill:#FFFFFF;}
</style>
<path d="M32,0c43.9,0,87.8,0,131.7,0c0.7,0.2,1.5,0.5,2.2,0.7c12.6,2.8,22.2,9.7,26.3,21.9c2.9,8.6,3.6,17.9,4.9,26.9
	c1.2,7.6,2,15.2,2.9,23.2c1.9,0,3.5,0,5,0c55.2,0,110.4,0,165.5,0c12.8,0,23.7,4.2,30.9,14.9c3.4,5,4.9,11.3,7.2,17v272.3
	c-1.2,3.8-1.9,7.8-3.6,11.3c-7,14-18.7,20.6-34.1,20.6c-42.6,0-85.2,0-127.7,0c-21.4,0-42.8,0-64.3,0c-16.8-0.1-30.7-9.3-35.2-24.8
	c-2.4-8.1-2.9-16.7-4-25.1c-1.1-7.5-1.9-15-2.9-22.8h-4.6c-31.3,0-62.5,0.2-93.8-0.2c-6-0.1-12.4-1.1-17.7-3.6
	c-14-6.4-20.6-18.3-20.7-33.6c-0.1-23.1,0-46.3,0-69.5c0-63.7,0-127.5,0-191.2C0,25.4,4.2,14.4,15,7.2C20,3.8,26.3,2.3,32,0z
	 M182.8,384.9h4.9c60.8,0,121.6,0,182.4,0c10.4,0,14.8-4.3,14.8-14.8c0-86.2,0-172.4,0-258.6c0-10.5-4.3-14.8-14.7-14.8
	c-54.1,0-108.3,0-162.4,0h-4.4c0.1,1.1,0.1,1.8,0.2,2.4c3.5,27.8,6.9,55.7,10.4,83.5c5.7,46,11.4,92.1,17.2,138.1
	c0.6,5-0.5,9.1-3.8,12.8c-4.2,4.6-8.2,9.4-12.3,14.2C204.4,359.8,193.9,371.9,182.8,384.9L182.8,384.9z M205.8,312.2
	c-1.8-14.4-3.6-28.4-5.3-42.3c-4.4-35.2-8.7-70.5-13.1-105.7c-5.3-42.3-10.6-84.7-15.8-127.1c-1.1-9.1-5.5-13.2-14.7-13.2
	c-39.4,0-78.8,0-118.2,0C28.3,23.9,24,28.3,24,38.7c0,86.2,0,172.4,0,258.7c0,10.4,4.3,14.8,14.8,14.8c54.2,0,108.3,0,162.5,0
	L205.8,312.2L205.8,312.2z M193,336.4h-31.9c1.3,10.6,2.6,21,4,32.2C174.7,357.5,183.6,347.2,193,336.4z"/>
<path class="st0" d="M193,336.4c-9.4,10.8-18.3,21.1-27.9,32.2c-1.4-11.2-2.7-21.6-4-32.2H193z"/>
<path d="M283.8,257c-10.7-13.2-19.1-26.9-24.9-42.2c-0.4-1-0.8-2-1.1-3c-1.1-4.5-2.4-7.8-8.5-8.2c-5.8-0.3-9.4-6.6-8.9-12.3
	c0.6-6.1,5.4-10.7,11.8-10.8c10.4-0.2,20.8-0.1,31.1-0.1c1.5,0,2.9,0,4.9,0c0-3.8,0-7.3,0-10.8c0.1-7.8,5-13.1,12-13.1
	c7,0,11.9,5.4,11.9,13.2c0,3.4,0,6.9,0,10.7c8.4,0,16.5,0,24.5,0c3.7,0,7.5-0.1,11.2,0c6.9,0.2,12,5.2,12.2,11.7
	s-4.8,11.8-11.8,12.1c-2.1,0.1-3.4,0.4-4.1,2.7c-5.5,17.6-14.4,33.4-25.8,47.8c-0.5,0.6-0.9,1.3-1.6,2.3
	c7.4,6.1,14.8,12.1,22.2,18.2c1.5,1.3,3.2,2.4,4.7,3.7c5.1,4.5,5.8,11.3,1.9,16.5c-4,5.3-11.1,6.4-16.7,2.2
	c-8-6.1-15.7-12.7-23.6-19.1c-1.6-1.3-3.2-2.7-5.1-4.3c-6.5,5.4-12.8,10.6-19.1,15.8c-3.1,2.5-6.2,5.1-9.4,7.4
	c-5.7,4.2-12.6,3.4-16.8-1.8c-4.2-5.3-3.4-12.5,2.1-17C265.8,271.5,274.7,264.5,283.8,257L283.8,257z M319.4,204.6h-38.6
	c4.6,12.7,11,24,19.3,34.3C307,231.6,316.6,214.6,319.4,204.6L319.4,204.6z"/>
<path d="M125.2,180.6H92.1c-1.9,9.6-3.9,19.2-5.8,28.8c-0.6,3-1.1,6-1.8,9c-1.6,6.9-7.8,11.2-14.2,9.8c-6.8-1.4-10.7-7.7-9.3-14.8
	c7.8-39.1,15.6-78.1,23.5-117.2c1.6-8,5.8-11.4,13.8-11.5c6.8-0.1,13.6-0.1,20.3,0c8.1,0.1,12.3,3.5,13.9,11.4
	c7.9,39.1,15.7,78.1,23.5,117.2c1.4,7.2-2.4,13.4-9.2,14.9c-6.5,1.4-12.8-2.9-14.3-10.1C130.1,205.7,127.7,193.3,125.2,180.6
	L125.2,180.6z M106.4,108.8c-3.2,15.9-6.3,31.6-9.5,47.5h23.3c-3.2-16-6.3-31.7-9.5-47.5H106.4L106.4,108.8z"/>
<path class="st0" d="M319.4,204.6c-2.8,10-12.4,27-19.4,34.3c-8.2-10.3-14.6-21.6-19.3-34.3L319.4,204.6L319.4,204.6z"/>
<path class="st0" d="M106.4,108.8h4.3c3.2,15.8,6.3,31.5,9.5,47.5H97C100.1,140.4,103.3,124.6,106.4,108.8L106.4,108.8z"/>
</svg>
