<?xml version="1.0" encoding="utf-8"?>
<!-- Generator: Adobe Illustrator 27.0.0, SVG Export Plug-In . SVG Version: 6.00 Build 0)  -->
<svg version="1.1" id="a" xmlns="http://www.w3.org/2000/svg" xmlns:xlink="http://www.w3.org/1999/xlink" x="0px" y="0px"
	 viewBox="0 0 25.7 18.8" style="enable-background:new 0 0 25.7 18.8;" xml:space="preserve">
<style type="text/css">
	.st0{fill:#FFFFFF;}
</style>
<path d="M25.7,17.2h-4.1c-0.4,1.1-1,1.6-1.9,1.6c-0.9,0-1.5-0.5-1.9-1.6H0v-0.5c0.1,0,0.2,0,0.4,0c5.7,0,11.5,0,17.2,0
	c0.2,0,0.3,0,0.4-0.3c0.3-1.3,1.9-1.8,2.9-1c0,0,0.1,0.1,0.1,0.1v-2.1c-0.1,0-0.2,0-0.2,0c-5.4,0-10.8,0-16.2,0
	c-0.2,0-0.3,0.1-0.3,0.3c-0.2,0.9-1,1.4-1.8,1.4c-0.9,0-1.6-0.6-1.8-1.5c0-0.1,0-0.1-0.1-0.2c-0.2,0-0.3,0-0.5,0V13c0,0,0,0,0,0
	c0.4,0.1,0.5-0.1,0.6-0.4c0.5-1.1,1.8-1.4,2.8-0.8c0,0,0.1,0.1,0.2,0.1V10H0V9.5h3.6V6.6H0V6.1h3.7c0-0.2,0-0.3,0-0.5h1v0.5h7.5v-3
	H0V2.6h12.2c0-0.3,0-0.5,0-0.8c0-0.1,0.1-0.2,0.1-0.2c2-0.5,4-1.1,6-1.6c0,0,0,0,0.1,0v2.6h7.2v0.5c-0.1,0-0.2,0-0.4,0
	c-2.2,0-4.4,0-6.6,0h-0.3v3h7.2v0.5h-7.2c-0.1,1,0.2,2-0.6,2.8H21c0-0.1,0-0.1,0.1-0.2c0.3,0,0.5,0,0.8,0c0.1,0,0.2,0,0.2,0.1
	c0,0.2,0.2,0.1,0.3,0.1c0.9,0,1.8,0,2.7,0c0.2,0,0.5,0,0.7,0v0.5h-3.6c0.5,0.7,1,1.3,1.5,1.9c-0.2,0.1-0.4,0.3-0.6,0.4
	c-0.3-0.4-0.7-0.9-1-1.3c0,0.3,0,0.5,0.2,0.7c0.3,0.3,0.5,0.7,0.8,1c0.1,0.1,0.2,0.2,0.4,0.2c0.3,0,0.7,0,1,0c0.5,0,1,0,1.4,0v0.5
	c-0.5,0-1,0-1.6,0c-0.5,0-0.9,0-1.2,0.4c0,0,0,0-0.1,0c-0.2-0.1-0.2-0.4-0.5-0.4c-0.2,0-0.5,0-0.7,0v3.3c0.1,0,0.2,0,0.3,0
	c1,0,1.9,0,2.9,0c0.3,0,0.6,0,0.9,0L25.7,17.2L25.7,17.2z M4.3,12.9H21v-3h-0.3c-2.5,0-5,0-7.5,0c-0.3,0-0.4,0.1-0.4,0.3
	c-0.2,0.7-0.6,1.1-1.3,1.3c-0.7,0.2-1.3,0-1.7-0.6c-0.2-0.3-0.4-0.7-0.6-1.1c-0.8,0-1.7,0-2.6,0c-0.4,0-0.8-0.1-1,0.3
	C5.4,10.1,5.3,10,5.2,9.9c-0.3,0-0.6,0-0.9,0L4.3,12.9L4.3,12.9z M12.2,8.4V6.6H5c0.4,0.6,0.8,1.1,1.2,1.6C6,8.4,5.8,8.5,5.6,8.7
	c-0.3-0.4-0.7-0.9-1-1.3c-0.1,0.3,0,0.5,0.2,0.7c0.3,0.4,0.6,0.8,0.9,1.2C5.8,9.4,5.9,9.4,6,9.4c1,0,2,0,3,0c0.2,0,0.2,0,0.3-0.2
	C9.5,8.5,10.2,8,11,8C11.5,8,11.9,8.1,12.2,8.4z M12.8,6.1h5v-3c-0.1,0-0.1,0-0.2,0c-0.8,0-1.7,0-2.5,0c-0.1,0-0.1,0-0.2,0
	c-0.7,0.2-1.3,0.4-2,0.6c-0.1,0-0.1,0.1-0.1,0.2C12.9,4.6,12.9,5.3,12.8,6.1L12.8,6.1z M15.4,9.4c-0.8-1.2-0.7-1.7,0.2-2.8h-2.7v2.8
	H15.4z M13.7,2.5C13.7,2.5,13.7,2.5,13.7,2.5c0.4,0,0.7,0,1.1,0c0.3,0,0.6,0,0.9,0c0.7-0.2,1.4-0.4,2.1-0.6c0,0,0.1-0.1,0.1-0.1
	c0-0.1,0-0.3,0-0.5C16.5,1.7,15.1,2.1,13.7,2.5L13.7,2.5z M4.3,8.6v0.8h0.6C4.7,9.1,4.5,8.9,4.3,8.6z M17,2.5C17,2.5,17,2.5,17,2.5
	l0.9,0c0-0.1,0-0.2,0-0.3C17.6,2.3,17.3,2.4,17,2.5L17,2.5z M12.9,3.4c0.3-0.1,0.6-0.2,0.8-0.2c0,0,0,0,0,0h-0.8L12.9,3.4L12.9,3.4z
	 M22.1,12.9c-0.2-0.2-0.3-0.4-0.5-0.6v0.6H22.1z"/>
<path class="st0" d="M4.3,8.6c0.2,0.3,0.4,0.5,0.6,0.8H4.3V8.6z"/>
<path class="st0" d="M22.1,12.9h-0.5v-0.6C21.8,12.6,22,12.7,22.1,12.9z"/>
</svg>
