<?xml version="1.0" standalone="no"?>
<!DOCTYPE svg PUBLIC "-//W3C//DTD SVG 1.1//EN" "http://www.w3.org/Graphics/SVG/1.1/DTD/svg11.dtd" >
<svg xmlns="http://www.w3.org/2000/svg">
<metadata>Generated by IcoMoon</metadata>
<defs>
<font id="ccc-admin-icon" horiz-adv-x="1024">
<font-face units-per-em="1024" ascent="960" descent="-64" />
<missing-glyph horiz-adv-x="1024" />
<glyph unicode="&#x20;" horiz-adv-x="512" d="" />
<glyph unicode="&#xe900;" glyph-name="logout" d="M725.333 618.667l-59.733-59.733 68.267-68.267h-349.867v-85.333h349.867l-68.267-68.267 59.733-59.733 170.667 170.667-170.667 170.667zM213.333 746.667h298.667v85.333h-298.667c-46.933 0-85.333-38.4-85.333-85.333v-597.333c0-46.933 38.4-85.333 85.333-85.333h298.667v85.333h-298.667v597.333z" />
<glyph unicode="&#xe901;" glyph-name="arrow-left" d="M853.333 490.667v-85.333h-512l234.667-234.667-60.587-60.587-337.92 337.92 337.92 337.92 60.587-60.587-234.667-234.667h512z" />
<glyph unicode="&#xe902;" glyph-name="close" d="M810.667 686.507l-60.16 60.16-238.507-238.507-238.507 238.507-60.16-60.16 238.507-238.507-238.507-238.507 60.16-60.16 238.507 238.507 238.507-238.507 60.16 60.16-238.507 238.507 238.507 238.507z" />
<glyph unicode="&#xe903;" glyph-name="menu" d="M128 704h768v-85.333h-768v85.333zM128 490.667h768v-85.333h-768v85.333zM128 277.333h768v-85.333h-768v85.333z" />
<glyph unicode="&#xe904;" glyph-name="chevron-down" d="M316.16 593.92l195.84-195.84 195.84 195.84 60.16-60.587-256-256-256 256 60.16 60.587z" />
<glyph unicode="&#xe905;" glyph-name="chevron-up" d="M316.16 302.507l195.84 195.413 195.84-195.413 60.16 60.16-256 256-256-256 60.16-60.16z" />
<glyph unicode="&#xe906;" glyph-name="all-hymns" d="M640 704h-512v-85.333h512v85.333zM640 533.333h-512v-85.333h512v85.333zM128 277.333h341.333v85.333h-341.333v-85.333zM725.333 704v-349.013c-13.227 4.693-27.733 7.68-42.667 7.68-70.692 0-128-57.308-128-128v0c0-70.692 57.308-128 128-128v0c70.692 0 128 57.308 128 128v0 384h128v85.333h-213.333z" />
<glyph unicode="&#xe907;" glyph-name="audio-hymns" d="M554.667 85.333c0-22.613 3.84-43.947 11.093-64h-309.76c-47.36 0-85.333 37.973-85.333 85.333v682.667c0 46.933 37.973 85.333 85.333 85.333h42.667v-298.667l106.667 64 106.667-64v298.667h256c46.933 0 85.333-37.973 85.333-85.333v-298.667h-149.333v-218.027c-85.333-19.627-149.333-96-149.333-187.307zM853.333 405.333h-64v-222.293c-13.227 5.973-27.307 8.96-42.667 8.96-58.88 0-106.667-47.787-106.667-106.667s47.787-106.667 106.667-106.667 106.667 47.787 106.667 106.667v234.667h85.333v85.333h-85.333z" />
<glyph unicode="&#xe908;" glyph-name="audio" d="M597.333 822.187v-87.893c123.307-36.693 213.333-151.040 213.333-286.293s-90.027-249.173-213.333-285.867v-88.32c170.667 38.827 298.667 191.573 298.667 374.187s-128 335.36-298.667 374.187zM704 448c0 75.52-42.667 140.373-106.667 171.947v-342.613c64 30.293 106.667 95.573 106.667 170.667zM128 576v-256h170.667l213.333-213.333v682.667l-213.333-213.333h-170.667z" />
<glyph unicode="&#xe909;" glyph-name="bible" d="M247.893 874.667h50.773v-298.667l106.667 64 106.667-64v298.667h256c47.128 0 85.333-38.205 85.333-85.333v0-682.667c0-44.8-40.533-85.333-85.333-85.333h-512c-44.8 0-85.333 40.533-85.333 85.333v682.667c0 42.667 35.413 81.493 77.227 85.333zM554.667 533.333v-128h-128v-85.333h128v-213.333h85.333v213.333h128v85.333h-128v128h-85.333z" />
<glyph unicode="&#xe90a;" glyph-name="book-edit" d="M256 106.667h213.333v-85.333h-213.333c-47.36 0-85.333 37.973-85.333 85.333v682.667c0 46.933 37.973 85.333 85.333 85.333h512c47.36 0 85.333-38.4 85.333-85.333v-268.8c-9.387-5.12-18.347-11.093-26.027-18.773l-59.307-59.307v346.88h-213.333v-341.333l-106.667 96-106.667-96v341.333h-85.333v-682.667zM974.933 385.28l-56.32 56.32c-8.533 8.533-22.613 8.533-30.72 0l-41.813-41.813 87.040-87.040 41.813 41.813c8.533 8.107 8.533 22.187 0 30.72zM554.667 108.373v-87.040h87.040l261.547 261.12-87.040 87.467-261.547-261.547z" />
<glyph unicode="&#xe90b;" glyph-name="chevron-right" d="M366.507 252.587l195.413 195.413-195.413 195.84 60.16 60.16 256-256-256-256-60.16 60.587z" />
<glyph unicode="&#xe90c;" glyph-name="music-clef" d="M554.667 490.667v149.333l93.867 94.293c34.133 33.707 40.533 87.467 16.64 129.28-19.2 33.707-54.187 53.76-91.307 53.76-8.96 0-19.2-1.28-27.307-3.84-46.080-12.373-77.227-55.040-77.227-102.827v-138.24l-133.973-135.253c-70.827-72.107-92.16-180.053-53.333-274.347 32.853-81.067 104.533-136.96 187.307-151.467v-26.027c0-11.093-9.813-21.333-21.333-21.333h-64v-85.333h64c57.6 0 106.667 47.36 106.667 106.667v21.333c86.613 0 177.493 81.92 177.493 202.667 0 98.133-81.92 181.333-177.493 181.333zM554.667 810.667c0 9.813 4.693 17.493 13.653 20.053 9.387 2.56 19.2-1.28 23.893-9.813 5.12-8.533 3.413-19.2-3.413-26.027l-34.133-36.693v52.48zM469.333 469.333c-41.387-27.307-72.533-74.24-83.627-117.76l83.627-22.187v-130.133c-48.213 12.8-89.6 47.787-109.653 96.427-25.173 62.293-11.52 133.12 35.413 180.907l74.24 78.080v-85.333zM554.667 192v215.893c49.92 0 93.013-46.933 93.013-98.56 0-74.667-54.187-117.333-93.013-117.333z" />
<glyph unicode="&#xe90d;" glyph-name="arrow-right" d="M170.667 490.667v-85.333h512l-234.667-234.667 60.587-60.587 337.92 337.92-337.92 337.92-60.587-60.587 234.667-234.667h-512z" />
<glyph unicode="&#xe90e;" glyph-name="plus-circle" d="M725.333 405.333h-170.667v-170.667h-85.333v170.667h-170.667v85.333h170.667v170.667h85.333v-170.667h170.667zM512 874.667c-235.641 0-426.667-191.025-426.667-426.667v0c0-235.641 191.025-426.667 426.667-426.667v0c235.641 0 426.667 191.025 426.667 426.667v0c0 235.641-191.025 426.667-426.667 426.667v0z" />
<glyph unicode="&#xe90f;" glyph-name="pencil-outline" d="M599.893 576l40.107-40.107-387.413-386.56h-39.253v39.253l386.56 387.413zM753.493 832c-10.667 0-21.76-4.267-29.867-12.373l-78.080-78.080 160-160 78.080 78.080c16.64 16.64 16.64 44.373 0 60.16l-99.84 99.84c-8.533 8.533-19.2 12.373-30.293 12.373zM599.893 695.893l-471.893-471.893v-160h160l471.893 471.893-160 160z" />
<glyph unicode="&#xe910;" glyph-name="sort-asc" d="M810.667 234.667h128l-170.667-170.667-170.667 170.667h128v597.333h85.333zM85.333 234.667h426.667v-85.333h-426.667zM256 746.667v-85.333h-170.667v85.333zM85.333 490.667h298.667v-85.333h-298.667v85.333z" />
<glyph unicode="&#xe911;" glyph-name="sort-desc" d="M810.667 661.333h128l-170.667 170.667-170.667-170.667h128v-597.333h85.333zM85.333 234.667h426.667v-85.333h-426.667zM256 746.667v-85.333h-170.667v85.333zM85.333 490.667h298.667v-85.333h-298.667v85.333z" />
<glyph unicode="&#xe912;" glyph-name="delete" d="M256 149.333c0-47.128 38.205-85.333 85.333-85.333v0h341.333c47.128 0 85.333 38.205 85.333 85.333v0 512h-512v-512zM360.96 453.12l60.16 60.16 90.88-90.453 90.453 90.453 60.16-60.16-90.453-90.453 90.453-90.453-60.16-60.16-90.453 90.453-90.453-90.453-60.16 60.16 90.453 90.453-90.88 90.453zM661.333 789.333l-42.667 42.667h-213.333l-42.667-42.667h-149.333v-85.333h597.333v85.333h-149.333z" />
<glyph unicode="&#xe913;" glyph-name="upload-outline" d="M384 533.333v-256h256v256h170.667l-298.667 298.667-298.667-298.667h170.667zM512 712.533l93.867-93.867h-51.2v-256h-85.333v256h-51.2l93.867 93.867zM810.667 192h-597.333v-85.333h597.333v85.333z" />
<glyph unicode="&#xe914;" glyph-name="e-circle" d="M512 874.667c235.641 0 426.667-191.025 426.667-426.667v0c0-235.641-191.025-426.667-426.667-426.667v0c-235.641 0-426.667 191.025-426.667 426.667v0c0 235.641 191.025 426.667 426.667 426.667v0zM384 661.333v-426.667h256v85.333h-170.667v85.333h170.667v85.333h-170.667v85.333h170.667v85.333h-256z" />
<glyph unicode="&#xe915;" glyph-name="f-circle" d="M512 874.667c235.641 0 426.667-191.025 426.667-426.667v0c0-235.641-191.025-426.667-426.667-426.667v0c-235.641 0-426.667 191.025-426.667 426.667v0c0 235.641 191.025 426.667 426.667 426.667v0zM384 661.333v-426.667h85.333v170.667h128v85.333h-128v85.333h170.667v85.333h-256z" />
<glyph unicode="&#xe916;" glyph-name="publish" d="M213.333 789.333v-85.333h597.333v85.333h-597.333zM213.333 362.667h170.667v-256h256v256h170.667l-298.667 298.667-298.667-298.667z" />
<glyph unicode="&#xe917;" glyph-name="y-circle" d="M384 661.333l85.333-256v-170.667h85.333v170.667l85.333 256h-85.333l-42.667-128-42.667 128h-85.333zM512 874.667c235.641 0 426.667-191.025 426.667-426.667v0c0-235.641-191.025-426.667-426.667-426.667v0c-235.641 0-426.667 191.025-426.667 426.667v0c0 235.641 191.025 426.667 426.667 426.667v0z" />
<glyph unicode="&#xe918;" glyph-name="check-circle" d="M512 874.667c-234.667 0-426.667-192-426.667-426.667s192-426.667 426.667-426.667 426.667 192 426.667 426.667-192 426.667-426.667 426.667zM426.667 234.667l-213.333 213.333 60.16 60.16 153.173-152.747 323.84 323.84 60.16-60.587-384-384z" />
</font>
</defs>
</svg>
