<?xml version="1.0" encoding="UTF-8"?><svg id="a" xmlns="http://www.w3.org/2000/svg" width="572.57" height="169.67" viewBox="0 0 572.57 169.67"><path d="M551.36,169.65H21.21c-11.66,0-21.21-9.54-21.21-21.21V21.21C0,9.55,9.54,0,21.21,0H551.36c11.66,0,21.21,9.54,21.21,21.21v127.24c0,11.66-9.54,21.2-21.21,21.2" fill="#fbfbfb" fill-rule="evenodd"/><g><ellipse cx="238.97" cy="112.56" rx="18.11" ry="18.04"/><ellipse cx="278.47" cy="112.56" rx="18.11" ry="18.04"/></g><path d="M551.36,.01H21.21C9.55,.01,0,9.55,0,21.22v127.24c0,11.66,9.54,21.21,21.21,21.21H551.36c11.66,0,21.21-9.54,21.21-21.21V21.21c0-11.66-9.54-21.2-21.21-21.2m0,3.39c9.82,0,17.81,7.99,17.81,17.81v127.24c0,9.82-7.99,17.81-17.81,17.81H21.21c-9.82,0-17.81-7.99-17.81-17.81V21.21C3.4,11.39,11.39,3.4,21.21,3.4H551.36" fill="#ccced3" fill-rule="evenodd"/><path d="M201.12,43.45c0,3.56-1.05,6.38-3.16,8.5-2.4,2.51-5.51,3.76-9.35,3.76s-6.8-1.27-9.36-3.82c-2.58-2.54-3.86-5.71-3.86-9.47s1.28-6.93,3.86-9.47c2.56-2.54,5.69-3.82,9.36-3.82,1.82,0,3.57,.36,5.22,1.06,1.66,.71,2.99,1.66,3.98,2.84l-2.24,2.24c-1.68-2.01-4-3.02-6.97-3.02-2.68,0-4.99,.94-6.95,2.83-1.96,1.89-2.93,4.33-2.93,7.34s.98,5.45,2.93,7.34c1.95,1.89,4.27,2.82,6.95,2.82,2.84,0,5.21-.95,7.11-2.84,1.23-1.24,1.94-2.95,2.13-5.15h-9.24v-3.06h12.33c.13,.66,.19,1.3,.19,1.92" fill="#010202" fill-rule="evenodd"/><path d="M201.12,43.45c0,3.56-1.05,6.38-3.16,8.5-2.4,2.51-5.51,3.76-9.35,3.76s-6.8-1.27-9.36-3.82c-2.58-2.54-3.86-5.71-3.86-9.47s1.28-6.93,3.86-9.47c2.56-2.54,5.69-3.82,9.36-3.82,1.82,0,3.57,.36,5.22,1.06,1.66,.71,2.99,1.66,3.98,2.84l-2.24,2.24c-1.68-2.01-4-3.02-6.97-3.02-2.68,0-4.99,.94-6.95,2.83-1.96,1.89-2.93,4.33-2.93,7.34s.98,5.45,2.93,7.34c1.95,1.89,4.27,2.82,6.95,2.82,2.84,0,5.21-.95,7.11-2.84,1.23-1.24,1.94-2.95,2.13-5.15h-9.24v-3.06h12.33c.13,.66,.19,1.3,.19,1.92h0Z" fill="none" stroke="#010202" stroke-width=".2"/><path d="M220.67,32.82h-11.59v8.07h10.44v3.06h-10.44v8.07h11.59v3.13h-14.86V29.7h14.86v3.12Z" fill="#010202" fill-rule="evenodd"/><path d="M220.67,32.82h-11.59v8.07h10.44v3.06h-10.44v8.07h11.59v3.13h-14.86V29.7h14.86v3.12Z" fill="none" stroke="#010202" stroke-width=".2"/><path d="M234.45,55.14h-3.27v-22.32h-7.11v-3.13h17.49v3.13h-7.11v22.32h0Z" fill="#010202" fill-rule="evenodd"/><path d="M234.45,55.14h-3.27v-22.32h-7.11v-3.13h17.49v3.13h-7.11v22.32h0Z" fill="none" stroke="#010202" stroke-width=".2"/><path d="M254.21,55.14h3.27V29.69h-3.27v25.45Z" fill="#010202" fill-rule="evenodd"/><path d="M254.21,55.14h3.27V29.69h-3.27v25.45Z" fill="none" stroke="#010202" stroke-width=".2"/><path d="M271.99,55.14h-3.27v-22.32h-7.11v-3.13h17.49v3.13h-7.11v22.32h0Z" fill="#010202" fill-rule="evenodd"/><path d="M271.99,55.14h-3.27v-22.32h-7.11v-3.13h17.49v3.13h-7.11v22.32h0Z" fill="none" stroke="#010202" stroke-width=".2"/><path d="M295.95,49.72c1.88,1.91,4.19,2.86,6.92,2.86s5.02-.95,6.91-2.86c1.88-1.91,2.83-4.34,2.83-7.3s-.95-5.4-2.83-7.3c-1.88-1.91-4.19-2.86-6.91-2.86s-5.03,.96-6.91,2.86-2.83,4.34-2.83,7.3,.94,5.39,2.82,7.3m16.25,2.13c-2.51,2.58-5.61,3.86-9.33,3.86s-6.83-1.28-9.33-3.86c-2.5-2.57-3.75-5.71-3.75-9.43s1.25-6.87,3.75-9.44,5.6-3.86,9.32-3.86,6.8,1.29,9.31,3.87,3.76,5.72,3.76,9.42c.02,3.73-1.23,6.87-3.73,9.44" fill="#010202" fill-rule="evenodd"/><path d="M295.95,49.72c1.88,1.91,4.19,2.86,6.92,2.86s5.02-.95,6.91-2.86c1.88-1.91,2.83-4.34,2.83-7.3s-.95-5.4-2.83-7.3c-1.88-1.91-4.19-2.86-6.91-2.86s-5.03,.96-6.91,2.86-2.83,4.34-2.83,7.3,.94,5.39,2.82,7.3Zm16.25,2.13c-2.51,2.58-5.61,3.86-9.33,3.86s-6.83-1.28-9.33-3.86c-2.5-2.57-3.75-5.71-3.75-9.43s1.25-6.87,3.75-9.44,5.6-3.86,9.32-3.86,6.8,1.29,9.31,3.87,3.76,5.72,3.76,9.42c.02,3.73-1.23,6.87-3.73,9.44h0Z" fill="none" stroke="#010202" stroke-width=".2"/><path d="M320.54,55.14V29.69h3.98l12.37,19.79h.14l-.14-4.9v-14.89h3.28v25.45h-3.42l-12.94-20.76h-.14l.14,4.91v15.85h-3.27Z" fill="#010202" fill-rule="evenodd"/><path d="M320.54,55.14V29.69h3.98l12.37,19.79h.14l-.14-4.9v-14.89h3.28v25.45h-3.42l-12.94-20.76h-.14l.14,4.91v15.85h-3.27Z" fill="none" stroke="#010202" stroke-width=".2"/><rect x="443.04" y="76.49" width="7.91" height="53.02"/><polygon points="514.32 95.59 505.25 118.58 504.97 118.58 495.56 95.59 487.03 95.59 501.15 127.71 493.1 145.59 501.35 145.59 523.11 95.59 514.32 95.59" fill-rule="evenodd"/><path d="M470.39,94.43c-5.73,0-11.66,2.52-14.12,8.12l7.02,2.93c1.5-2.93,4.3-3.89,7.23-3.89,4.09,0,8.25,2.46,8.32,6.82v.55c-1.44-.82-4.5-2.04-8.25-2.04-7.58,0-15.28,4.16-15.28,11.93,0,7.1,6.21,11.67,13.17,11.67,5.31,0,8.25-2.39,10.09-5.19h.27v4.09h7.64v-20.33c.01-9.41-7.02-14.66-16.09-14.66Z" fill-rule="evenodd"/><path d="M421.28,76.49h-18.96v53.02h7.91v-20.09h11.05c8.77,0,17.39-6.35,17.39-16.47,0-10.11-8.62-16.46-17.39-16.46h0Z" fill-rule="evenodd"/><path d="M326.95,98.55h-.27c-1.78-2.12-5.2-4.04-9.49-4.04-9.02,0-17.29,7.93-17.29,18.11s8.27,17.97,17.29,17.97c4.3,0,7.72-1.91,9.49-4.09h.27v2.59c0,6.9-3.69,10.59-9.63,10.59-4.85,0-7.86-3.48-9.09-6.42l-6.9,2.87c1.98,4.78,7.24,10.66,15.99,10.66,9.3,0,17.15-5.47,17.15-18.79v-32.39h-7.52v2.94h0Z" fill-rule="evenodd"/><polygon points="339.94 129.51 347.87 129.51 347.87 76.49 339.94 76.49 339.94 129.51" fill-rule="evenodd"/><path d="M384.15,106c-1.5-4.03-6.08-11.48-15.44-11.48s-17.01,7.32-17.01,18.04c0,10.11,7.65,18.04,17.9,18.04,8.27,0,13.05-5.06,15.04-8l-6.15-4.1c-2.06,3.01-4.85,4.99-8.89,4.99s-6.9-1.85-8.74-5.47l24.12-9.98-.83-2.04h0Z" fill-rule="evenodd"/><path d="M191.99,100.06v7.65h18.32c-.55,4.31-1.99,7.45-4.17,9.63-2.67,2.67-6.84,5.6-14.15,5.6-11.28,0-20.09-9.09-20.09-20.36s8.82-20.36,20.09-20.36c6.08,0,10.52,2.39,13.8,5.46l5.4-5.4c-4.58-4.37-10.66-7.72-19.2-7.72-15.44,0-28.42,12.58-28.42,28.02s12.98,28.01,28.42,28.01c8.34,0,14.62-2.73,19.54-7.86,5.05-5.06,6.63-12.16,6.63-17.9,0-1.77-.13-3.41-.41-4.78h-25.76Z" fill-rule="evenodd"/><g><path d="M94.61,84.82L43.24,33.55c-.59,1.19-.94,2.65-.94,4.42v93.72c0,1.79,.36,3.28,.97,4.47l51.34-51.34Z" fill-rule="evenodd"/><path d="M43.39,33.22s.05-.09,.08-.14c-.03,.05-.05,.1-.08,.14Z" fill-rule="evenodd"/><path d="M97.58,81.85l15.82-15.82L53.08,31.76c-1.71-.98-3.32-1.44-4.76-1.44-.73,0-1.4,.13-2.02,.36l51.28,51.17Z" fill-rule="evenodd"/><path d="M135.71,78.71l-18.49-10.51-16.64,16.64,16.64,16.6,18.49-10.51c5.92-3.35,5.92-8.86,0-12.22Z" fill-rule="evenodd"/><path d="M97.62,87.82l-51.17,51.19c1.83,.62,4.12,.32,6.63-1.1l60.36-34.31-15.82-15.78Z" fill-rule="evenodd"/><path d="M43.34,136.32c.24,.44,.51,.84,.82,1.18-.31-.36-.6-.74-.82-1.18Z" fill-rule="evenodd"/></g><g><path d="M238.97,101.63c-5.46,0-10.18,4.44-10.18,10.93s4.71,10.94,10.18,10.94,10.18-4.51,10.18-10.94-4.71-10.93-10.18-10.93Z" fill="#fff"/><path d="M288.65,112.56c0-6.49-4.71-10.93-10.18-10.93s-10.18,4.44-10.18,10.93,4.71,10.94,10.18,10.94,10.18-4.52,10.18-10.94Z" fill="#fff"/></g><path d="M317.87,123.5c-5.46,0-10.04-4.58-10.04-10.86s4.58-11,10.05-11,9.63,4.65,9.63,11c0,6.28-4.25,10.85-9.64,10.86h0Z" fill="#fbfbfb" fill-rule="evenodd"/><path d="M421.48,102.04h-11.26v-18.17h11.26c5.92,0,9.28,4.9,9.28,9.08-.01,4.11-3.37,9.09-9.28,9.09Z" fill="#fff" fill-rule="evenodd"/><path d="M359.55,112.02c-.2-6.97,5.4-10.52,9.44-10.52,3.14,0,5.81,1.58,6.69,3.83l-16.13,6.69h0Z" fill="#fff" fill-rule="evenodd"/><path d="M469.43,123.49c-2.59,0-6.21-1.3-6.21-4.5,0-4.09,4.5-5.66,8.39-5.66,3.47,0,5.12,.75,7.23,1.77-.61,4.91-4.84,8.39-9.41,8.39Z" fill="#fbfbfb" fill-rule="evenodd"/></svg>
