<?xml version="1.0" encoding="UTF-8"?><svg id="a" xmlns="http://www.w3.org/2000/svg" width="326.16" height="344.4" viewBox="0 0 326.16 344.4"><path d="M307.91,84.63l5.89-9.49-2.9-1.8c-.85-.53-1.33-1.5-1.24-2.5,.05-.56,.07-1.11,.06-1.67-.03-1,.5-1.93,1.38-2.41l3-1.62-5.26-9.86-3,1.61c-.88,.47-1.96,.4-2.77-.18-.46-.32-.94-.61-1.42-.88-.88-.47-1.42-1.4-1.4-2.4l.11-3.42-11.17-.35-.1,3.43c-.04,1-.65,1.9-1.56,2.31l-.73,.37-.71,.41c-.85,.53-1.93,.53-2.78,0l-2.93-1.81-5.88,9.49,2.91,1.8c.85,.53,1.32,1.5,1.23,2.5-.05,.56-.07,1.11-.06,1.67,.03,1-.5,1.93-1.38,2.4l-3,1.62,5.28,9.85,3-1.62c.88-.46,1.95-.4,2.77,.18,.46,.31,.93,.61,1.42,.87,.88,.47,1.43,1.41,1.4,2.41l-.11,3.42,11.17,.35,.1-3.43c.04-1,.64-1.88,1.55-2.3l.74-.37c.25-.13,.49-.27,.72-.41,.86-.52,1.93-.52,2.79,0l2.88,1.83Zm-9.45-7c-4.46,2.38-10,.7-12.38-3.75-2.38-4.46-.7-10,3.75-12.38,4.45-2.38,10-.7,12.38,3.75,2.36,4.44,.69,9.96-3.74,12.34v.05Z" fill="#ebebeb"/><path d="M33.73,132.28l5.89-9.49-2.91-1.8c-.85-.53-1.32-1.5-1.23-2.5,.05-.56,.07-1.11,.05-1.67-.02-1,.51-1.93,1.39-2.41l3-1.62-5.28-9.84-3,1.61c-.88,.47-1.96,.41-2.78-.17-.45-.32-.93-.62-1.42-.88-.88-.48-1.42-1.41-1.39-2.41l.1-3.42-11.16-.35-.1,3.43c-.04,1-.65,1.9-1.56,2.31l-.73,.37c-.25,.13-.48,.27-.72,.41-.85,.53-1.92,.53-2.77,0l-2.93-1.81L.29,111.53l2.92,1.81c.85,.54,1.32,1.5,1.23,2.5-.05,.55-.07,1.11-.06,1.66,.03,1-.5,1.92-1.38,2.4l-3,1.62,5.28,9.85,3-1.62c.88-.46,1.95-.4,2.77,.18,.45,.32,.92,.61,1.41,.87,.93,.47,1.5,1.44,1.45,2.48l-.11,3.43,11.16,.34,.11-3.42c.04-1,.64-1.89,1.55-2.31,.25-.11,.5-.24,.74-.37l.72-.41c.85-.53,1.93-.53,2.78,0l2.87,1.74Zm-9.45-7c-4.45,2.39-10,.71-12.39-3.75s-.71-10,3.75-12.39c4.45-2.39,10-.71,12.39,3.75,0,0,0,0,0,0,2.38,4.45,.71,9.99-3.74,12.37,0,0,0,0-.01,0Z" fill="#ebebeb"/><path d="M135.35,10.28l-3.91-6.78-2.07,1.2c-.62,.37-1.4,.34-2-.06-.32-.21-.66-.41-1-.59-.62-.32-1-.96-1-1.65V0h-7.83V2.4c0,.69-.38,1.33-1,1.65-.35,.18-.68,.37-1,.59-.59,.38-1.34,.41-1.95,.06l-2.08-1.2-3.94,6.78,2.09,1.2c.6,.36,.96,1.03,.91,1.73v1.15c.04,.7-.31,1.36-.91,1.72l-2.09,1.2,3.91,6.78,2.08-1.2c.61-.35,1.37-.32,1.95,.07,.32,.21,.66,.4,1,.58,.62,.32,1,.96,1,1.66v2.39h7.83v-2.39c0-.7,.38-1.34,1-1.66,.35-.17,.68-.37,1-.58,.58-.39,1.34-.42,1.95-.07l2.08,1.2,3.91-6.78-2.08-1.2c-.6-.36-.95-1.02-.91-1.72v-1.15c-.05-.7,.31-1.37,.92-1.73l2.14-1.2Zm-7.48,3.5c0,3.54-2.87,6.41-6.41,6.41s-6.41-2.87-6.41-6.41c0-3.54,2.87-6.41,6.41-6.41,0,0,0,0,0,0,3.53-.02,6.42,2.83,6.44,6.36h0s-.04,.05-.04,.05Z" fill="#ebebeb"/><ellipse cx="157.91" cy="323.32" rx="149.06" ry="21.08" fill="#ebebeb"/><rect x="142.99" y="188.12" width="35.51" height="2.91" fill="#37474f"/><rect x="142.99" y="191.91" width="35.51" height="2.91" fill="#37474f"/><rect x="142.99" y="195.7" width="35.51" height="2.91" fill="#37474f"/><rect x="142.99" y="199.49" width="35.51" height="2.91" fill="#37474f"/><rect x="142.99" y="203.28" width="35.51" height="2.91" fill="#37474f"/><rect x="126.36" y="278.87" width="67.52" height="2.91" fill="#37474f"/><rect x="126.36" y="282.66" width="67.52" height="2.91" fill="#37474f"/><rect x="126.36" y="286.45" width="67.52" height="2.91" fill="#37474f"/><rect x="126.36" y="290.24" width="67.52" height="2.91" fill="#37474f"/><rect x="126.36" y="294.03" width="67.52" height="2.91" fill="#37474f"/><path d="M96.74,164.08c0-.39-14.77-5.36-14.77-5.36l.87-50.88,19.64-4.22-5.74,60.46Z" fill="#ffc727"/><path d="M96.74,164.08c0-.39-14.77-5.36-14.77-5.36l.87-50.88,19.64-4.22-5.74,60.46Z" isolation="isolate" opacity=".2"/><path d="M232.4,184.05c.1-.38,15.72,.06,15.72,.06l16.69-48.08-17-10.71-15.41,58.73Z" fill="#ffc727"/><path d="M232.4,184.05c.1-.38,15.72,.06,15.72,.06l16.69-48.08-17-10.71-15.41,58.73Z" isolation="isolate" opacity=".2"/><path d="M93.91,182.82s5.49-82.3,10.31-109.38c0,0,99.42,7.52,153.09,28,0,0-27.67,96.12-29.1,100.89-.02,.04-70.03-13.75-134.3-19.51Z" fill="#ffc727"/><path d="M182.63,84.43c-1.61,9.91-3.26,19.81-4.94,29.72l-5.13,29.67-.27-.41,33.31,7.87,16.64,4,16.61,4.11-16.7-3.74-16.69-3.81-33.34-7.79-.34-.08,.06-.34,5.31-29.65c1.78-9.8,3.61-19.65,5.48-29.55Z" isolation="isolate" opacity=".1"/><path d="M178.98,90.08c-.02,.99-.77,1.82-1.75,1.94-.53,.04-1.06-.13-1.46-.48-.41-.37-.65-.9-.66-1.46,0-.56,.25-1.09,.66-1.46,.81-.7,2.04-.61,2.74,.2,.3,.35,.47,.8,.47,1.26Zm0,0c0-.46-.21-.89-.55-1.19-.66-.56-1.65-.48-2.21,.18-.56,.66-.48,1.65,.18,2.21,.59,.5,1.45,.5,2.04,0,.34-.31,.54-.74,.55-1.2Z" isolation="isolate" opacity=".1"/><path d="M177.23,102.33c0,1-.75,1.83-1.74,1.93-1.05,.11-2-.65-2.11-1.71,0-.07-.01-.15-.01-.22,0-.56,.23-1.09,.65-1.46,.41-.35,.94-.52,1.47-.48,.98,.13,1.72,.95,1.74,1.94Zm0,0c0-.46-.2-.9-.55-1.2-.33-.28-.76-.41-1.19-.36-.86,.1-1.48,.88-1.38,1.74,.08,.73,.66,1.3,1.38,1.38,.86,.1,1.63-.51,1.73-1.37,0-.06,.01-.13,.01-.19Z" isolation="isolate" opacity=".1"/><path d="M175.08,115.28c0,1-.75,1.83-1.74,1.93-1.1,.02-2.02-.85-2.04-1.96-.01-.54,.19-1.06,.57-1.44,.41-.35,.94-.52,1.47-.47,.99,.1,1.75,.94,1.74,1.94Zm0,0c0-.46-.2-.9-.55-1.2-.33-.28-.76-.41-1.19-.36-.86,.1-1.48,.88-1.38,1.74,.08,.73,.66,1.3,1.38,1.38,.43,.04,.86-.09,1.19-.37,.35-.3,.55-.73,.55-1.19Z" isolation="isolate" opacity=".1"/><path d="M172.91,128.21c0,.99-.75,1.83-1.74,1.93-1.07,.08-2-.73-2.07-1.8-.08-1.07,.73-2,1.8-2.07,.09,0,.19,0,.28,0,.99,.1,1.75,.94,1.74,1.94Zm0,0c0-.46-.2-.9-.55-1.2-.33-.28-.76-.41-1.19-.36-.86,.1-1.48,.88-1.38,1.74,.08,.73,.66,1.3,1.38,1.38,.43,.04,.86-.09,1.19-.37,.34-.3,.55-.73,.55-1.19Z" isolation="isolate" opacity=".1"/><path d="M180.26,148.84c0,1.07-.87,1.94-1.94,1.94-1.07,0-1.94-.87-1.94-1.94,0-1.07,.87-1.94,1.94-1.94,.06,0,.13,0,.19,0,.99,.1,1.75,.93,1.75,1.93Zm0,0c0-.46-.21-.89-.55-1.2-.34-.28-.77-.41-1.2-.36-.86,.1-1.47,.89-1.37,1.75,.1,.86,.89,1.47,1.75,1.37,.3-.04,.59-.16,.82-.36,.34-.31,.54-.74,.55-1.2Z" isolation="isolate" opacity=".1"/><path d="M192.47,151.82c0,1.07-.88,1.94-1.95,1.93-.46,0-.91-.17-1.26-.47-.81-.71-.89-1.93-.18-2.74,.06-.06,.12-.13,.18-.18,.4-.34,.93-.51,1.46-.47,1,.09,1.75,.93,1.75,1.93Zm0,0c0-.46-.2-.9-.55-1.2-.34-.28-.77-.41-1.2-.36-.86,.1-1.47,.89-1.37,1.75,.1,.86,.89,1.47,1.75,1.37,.3-.04,.59-.16,.82-.36,.35-.3,.55-.74,.55-1.2Z" isolation="isolate" opacity=".1"/><path d="M204.68,154.8c0,1.07-.86,1.93-1.92,1.94-.47,0-.92-.17-1.28-.48-.41-.37-.65-.9-.66-1.46,0-.56,.23-1.09,.65-1.46,.41-.35,.94-.52,1.47-.47,.99,.1,1.74,.93,1.74,1.93Zm0,0c0-.46-.2-.9-.54-1.2-.35-.27-.79-.38-1.23-.32-.86,.1-1.48,.88-1.38,1.74,.08,.73,.66,1.3,1.38,1.38,.85,.11,1.62-.5,1.73-1.35,0-.07,.01-.14,.01-.21l.03-.04Z" isolation="isolate" opacity=".1"/><path d="M216.91,157.78c0,1.07-.88,1.94-1.95,1.93-.46,0-.91-.17-1.26-.47-.41-.37-.65-.9-.66-1.46,0-.56,.25-1.09,.66-1.46,.4-.35,.93-.52,1.46-.48,.98,.12,1.73,.95,1.75,1.94Zm0,0c0-.46-.21-.89-.55-1.2-.66-.56-1.65-.47-2.21,.19-.56,.66-.47,1.65,.19,2.21,.23,.2,.52,.32,.82,.36,.43,.05,.86-.08,1.2-.36,.34-.31,.54-.74,.55-1.2Z" isolation="isolate" opacity=".1"/><path d="M229.11,160.89c-.1,.98-.9,1.74-1.89,1.79-.54,0-1.05-.2-1.43-.58-.75-.78-.72-2.01,.05-2.76,.06-.05,.12-.11,.18-.15,.43-.32,.96-.45,1.49-.36,.97,.2,1.65,1.07,1.6,2.06Zm0,0c.03-.46-.14-.9-.46-1.23-.61-.61-1.61-.61-2.22,0-.61,.61-.61,1.61,0,2.22,.55,.55,1.41,.61,2.03,.15,.37-.27,.6-.69,.64-1.15Z" isolation="isolate" opacity=".1"/><path d="M170.78,141.14c0,1-.75,1.84-1.74,1.94-.53,.04-1.06-.13-1.47-.47-.81-.7-.9-1.92-.21-2.74,.42-.48,1.04-.73,1.68-.66,.99,.1,1.74,.94,1.74,1.93Zm0,0c0-.46-.21-.89-.55-1.19-.66-.56-1.65-.48-2.21,.18-.56,.66-.48,1.65,.18,2.21,.59,.5,1.45,.5,2.04,0,.35-.3,.55-.74,.55-1.2Z" isolation="isolate" opacity=".1"/><circle cx="131.34" cy="141.6" r="28.23" transform="translate(-61.66 134.35) rotate(-45)" isolation="isolate" opacity=".2"/><circle cx="131.33" cy="141.57" r="22.64" transform="translate(-47.56 214.29) rotate(-69.27)" fill="#263238"/><rect x="124.23" y="132.81" width="5.36" height="5.36" transform="translate(-27.13 239.11) rotate(-80.8)" fill="#ffc727"/><rect x="119.79" y="126.66" width="5.36" height="5.36" transform="translate(-24.79 229.56) rotate(-80.8)" fill="#ffc727"/><rect x="140.96" y="130.09" width="5.36" height="5.36" transform="translate(-10.39 253.33) rotate(-80.8)" fill="#ffc727"/><rect x="116.38" y="147.72" width="5.36" height="5.36" transform="translate(-48.44 243.88) rotate(-80.8)" fill="#ffc727"/><rect x="137.55" y="151.14" width="5.36" height="5.36" transform="translate(-34.03 267.65) rotate(-80.8)" fill="#ffc727"/><rect x="122.53" y="143.28" width="5.36" height="5.36" transform="translate(-38.89 246.22) rotate(-80.8)" fill="#ffc727"/><rect x="128.67" y="138.9" width="5.36" height="5.36" transform="translate(-29.41 248.61) rotate(-80.8)" fill="#ffc727"/><rect x="134.81" y="134.52" width="5.36" height="5.36" transform="translate(-19.93 250.99) rotate(-80.8)" fill="#ffc727"/><rect x="133.13" y="144.99" width="5.36" height="5.36" transform="translate(-31.67 258.12) rotate(-80.8)" fill="#ffc727"/><circle cx="207.09" cy="153.4" r="28.23" fill="#ffc727"/><circle cx="207.09" cy="153.4" r="28.23" isolation="isolate" opacity=".2"/><path d="M234.57,159.95c-.13,.56-.28,1.09-.44,1.63l-55-11.74c.13-1,.3-2,.53-2.95,3.33-15.24,18.39-24.88,33.62-21.55,15.24,3.33,24.88,18.39,21.55,33.62-.07,.33-.15,.66-.23,.98h-.03Z" isolation="isolate" opacity=".2"/><circle cx="207.11" cy="153.39" r="22.64" fill="#263238"/><rect x="193.75" y="150.74" width="26.69" height="5.36" transform="translate(9.94 319.43) rotate(-76.63)" fill="#ffc727"/><path d="M236.21,159.42l-57.8-13.74c4.08-15.89,20.27-25.47,36.16-21.4,15.5,3.98,25.06,19.51,21.64,35.14h0Z" fill="#ffc727"/><path d="M236.21,159.42l-57.8-13.74c4.08-15.89,20.27-25.47,36.16-21.4,15.5,3.98,25.06,19.51,21.64,35.14h0Z" isolation="isolate" opacity=".2"/><path d="M157.98,170.2c.13-2.35,1.05-4.59,2.61-6.35,.84-.93,1.89-1.64,3.07-2.07,1.19-.4,2.45-.54,3.7-.41,2.6,.23,4.84,1.91,5.8,4.33,.89,2.17,1.1,4.56,.59,6.85-.29-2.15-.97-4.23-2-6.14-.93-1.72-2.66-2.87-4.61-3.06-1.98-.26-3.97,.32-5.49,1.61-1.59,1.46-2.84,3.25-3.67,5.24Z" isolation="isolate" opacity=".1"/><path d="M101.63,112.62c.23-3,.57-6,.86-9s.65-6,1-9,.74-6,1.12-9,.81-6,1.22-9l.1-.8,.81,.05c6.52,.41,13.02,.94,19.51,1.61,3.24,.33,6.48,.71,9.72,1.12s6.47,.9,9.68,1.48l-19.52-1.2-19.49-1.27,.91-.74c-.44,3-.85,6-1.32,9s-.92,6-1.42,8.95-1,5.95-1.52,8.93-1.05,5.91-1.66,8.87Z" fill="#fff"/><path d="M106.32,135.44c.72-3.66,2.27-7.11,4.52-10.09,.55-.76,1.18-1.46,1.78-2.18s1.33-1.33,2-2,1.47-1.18,2.22-1.75,1.58-1,2.39-1.52,1.71-.83,2.57-1.22l2.68-.93,2.78-.57c.93-.14,1.87-.17,2.81-.24,3.72-.05,7.41,.67,10.84,2.1-3.54-.74-7.17-.99-10.78-.72-3.54,.32-6.97,1.39-10.07,3.13-3.12,1.73-5.89,4.02-8.18,6.75-2.34,2.76-4.22,5.88-5.56,9.24Z" fill="#fff"/><path d="M184.2,143.06c1.22-3.52,3.23-6.73,5.86-9.37,.65-.67,1.37-1.28,2.07-1.91s1.5-1.13,2.26-1.69,1.61-1,2.44-1.43,1.71-.8,2.58-1.17,1.8-.59,2.7-.86l2.79-.55,2.83-.18c.94,0,1.88,.1,2.82,.16,3.7,.46,7.26,1.67,10.47,3.56-3.41-1.22-6.97-1.96-10.58-2.2-3.55-.17-7.09,.41-10.4,1.71-3.31,1.29-6.36,3.17-9,5.55-2.72,2.41-5.03,5.24-6.84,8.38Z" fill="#fff"/><path d="M97.05,233.53c-7.23,0-23.06-1.62-33.25-14.72-13-16.76-8.32-48.92-8.12-50.28l5.66,.86c0,.31-4.54,31.09,7,45.9,11.26,14.48,31.69,12.41,31.89,12.38l.65,5.69c-.25,.02-1.65,.17-3.83,.17Z" fill="#ffc727"/><path d="M97.05,233.53c-7.23,0-23.06-1.62-33.25-14.72-13-16.76-8.32-48.92-8.12-50.28l5.66,.86c0,.31-4.54,31.09,7,45.9,11.26,14.48,31.69,12.41,31.89,12.38l.65,5.69c-.25,.02-1.65,.17-3.83,.17Z" fill="#fff" isolation="isolate" opacity=".4"/><path d="M63.01,173.28c-1.06,0-2.12-.08-3.16-.25-9.55-1.55-13.77-7.26-15.64-11.78s-2.3-9.97-1.3-16.29l12.1,2c-.63,3.89-.44,7.32,.52,9.65,.69,1.66,2,3.66,6.26,4.35,1.94,.31,4,.15,6.23-3.16,1.54-2.52,2.58-5.31,3.06-8.23l12.11,2c-.79,4.62-2.49,9.04-5,13-3.72,5.71-9.06,8.71-15.18,8.71Z" fill="#ffc727"/><path d="M109.01,249.91c0-.26-10.26-1.89-10.26-1.89l-5-33.41,12.39-4.9,2.87,40.2Z" fill="#ffc727"/><path d="M109.01,249.91c0-.26-10.26-1.89-10.26-1.89l-5-33.41,12.39-4.9,2.87,40.2Z" isolation="isolate" opacity=".2"/><path d="M210.21,249.97c0-.26,10.29-1.66,10.29-1.66l5.71-33.29-12.3-5.17-3.7,40.12Z" fill="#ffc727"/><path d="M210.21,249.97c0-.26,10.29-1.66,10.29-1.66l5.71-33.29-12.3-5.17-3.7,40.12Z" isolation="isolate" opacity=".2"/><path d="M104.75,202.28s82.79-3.53,110.75,1.13c0,0-8.21,80.1-8.65,81.66,0,0-82.36-.23-95.23,0,0-.05-6.97-53.32-6.87-82.79Z" fill="#ffc727"/><path d="M129.91,224.19s45.19-1.79,60.46,.56c0,0-4.49,40.39-4.73,41.18,0,0-45-.11-52,0,.01,0-3.08-27.65-3.73-41.74Z" isolation="isolate" opacity=".2"/><path d="M136.07,265.91h-2.43s-3.08-27.63-3.73-41.73l2.83-.1,3.33,41.83Z" isolation="isolate" opacity=".2"/><path d="M149.4,234.15c-2.53-.8-5.24,.6-6.04,3.13-.8,2.53,.6,5.24,3.13,6.04s5.24-.6,6.04-3.13c0-.01,0-.03,.01-.04,.78-2.52-.62-5.2-3.14-6Zm2.58,5.86c-.7,2.22-3.08,3.45-5.3,2.75-2.22-.7-3.45-3.08-2.75-5.3,.7-2.22,3.07-3.45,5.29-2.75,2.22,.7,3.45,3.07,2.75,5.3,0,0,0,0,0,0h0Zm-2.58-5.86c-2.53-.8-5.24,.6-6.04,3.13-.8,2.53,.6,5.24,3.13,6.04s5.24-.6,6.04-3.13c0-.01,0-.03,.01-.04,.78-2.52-.62-5.2-3.14-6Zm2.58,5.86c-.7,2.22-3.08,3.45-5.3,2.75-2.22-.7-3.45-3.08-2.75-5.3,.7-2.22,3.07-3.45,5.29-2.75,2.22,.7,3.45,3.07,2.75,5.3,0,0,0,0,0,0h0Zm-2.58-5.86c-2.53-.8-5.24,.6-6.04,3.13-.8,2.53,.6,5.24,3.13,6.04s5.24-.6,6.04-3.13c0-.01,0-.03,.01-.04,.78-2.52-.62-5.2-3.14-6Zm2.58,5.86c-.7,2.22-3.08,3.45-5.3,2.75-2.22-.7-3.45-3.08-2.75-5.3,.7-2.22,3.07-3.45,5.29-2.75,2.22,.7,3.45,3.07,2.75,5.3,0,0,0,0,0,0h0Zm-1-10.94c-5.34-1.68-11.03,1.27-12.71,6.61-1.68,5.34,1.27,11.03,6.61,12.71,5.34,1.68,11.03-1.27,12.71-6.61,1.68-5.33-1.26-11.01-6.58-12.71h-.03Zm2.25,11.34c-.94,2.92-4.07,4.54-6.99,3.6-2.92-.94-4.54-4.07-3.6-6.99,.93-2.91,4.04-4.53,6.96-3.61,2.94,.91,4.58,4.03,3.67,6.97,0,0,0,.02,0,.03h-.03Zm-.72-.23c.8-2.53-.6-5.24-3.13-6.04s-5.24,.6-6.04,3.13,.6,5.24,3.13,6.04c.01,0,.03,0,.04,.01,2.53,.8,5.22-.6,6.03-3.13,0,0,0,0,0-.01h-.03Zm-.56-.17c-.7,2.22-3.08,3.45-5.3,2.75-2.22-.7-3.45-3.08-2.75-5.3,.7-2.22,3.07-3.45,5.29-2.75,2.23,.69,3.47,3.05,2.79,5.28,0,0,0,.02,0,.02h-.03Zm-2.58-5.86c-2.53-.8-5.24,.6-6.04,3.13-.8,2.53,.6,5.24,3.13,6.04s5.24-.6,6.04-3.13c0-.01,0-.03,.01-.04,.78-2.51-.61-5.19-3.11-6h-.03Zm2.58,5.86c-.7,2.22-3.08,3.45-5.3,2.75-2.22-.7-3.45-3.08-2.75-5.3,.7-2.22,3.07-3.45,5.29-2.75,2.23,.69,3.47,3.05,2.79,5.28,0,0,0,.02,0,.02h-.03Zm-2.58-5.86c-2.53-.8-5.24,.6-6.04,3.13-.8,2.53,.6,5.24,3.13,6.04s5.24-.6,6.04-3.13c0-.01,0-.03,.01-.04,.78-2.51-.61-5.19-3.11-6h-.03Zm2.58,5.86c-.7,2.22-3.08,3.45-5.3,2.75-2.22-.7-3.45-3.08-2.75-5.3,.7-2.22,3.07-3.45,5.29-2.75,2.23,.69,3.47,3.05,2.79,5.28,0,0,0,.02,0,.02h-.03Z" fill="#ffc727"/><polygon points="146.89 248.58 143.18 247.41 142.56 250.11 145.86 251.15 146.89 248.58" fill="#ffc727"/><polygon points="140.22 245.1 138.42 241.65 136.07 243.11 137.67 246.19 140.22 245.1" fill="#ffc727"/><polygon points="137.96 237.92 139.13 234.21 136.43 233.58 135.39 236.89 137.96 237.92" fill="#ffc727"/><polygon points="141.44 231.24 144.89 229.44 143.43 227.1 140.35 228.7 141.44 231.24" fill="#ffc727"/><polygon points="148.62 228.98 152.33 230.15 152.96 227.46 149.65 226.42 148.62 228.98" fill="#ffc727"/><polygon points="155.3 232.46 157.09 235.92 159.44 234.45 157.84 231.38 155.3 232.46" fill="#ffc727"/><polygon points="157.56 239.65 156.39 243.36 159.08 243.98 160.12 240.68 157.56 239.65" fill="#ffc727"/><polygon points="154.08 246.32 150.62 248.12 152.09 250.47 155.16 248.87 154.08 246.32" fill="#ffc727"/><path d="M165.75,248.28c-1.5-.98-3.51-.56-4.49,.94-.98,1.5-.56,3.51,.94,4.49,1.5,.98,3.51,.56,4.49-.94h0c.98-1.5,.56-3.51-.94-4.49Zm.61,4.26c-.86,1.31-2.62,1.69-3.93,.83-1.31-.86-1.69-2.62-.83-3.93,.86-1.31,2.62-1.69,3.93-.83,1.32,.85,1.69,2.61,.84,3.93,0,0,0,0,0,.01h0Zm-.61-4.27c-1.5-.98-3.51-.56-4.49,.94-.98,1.5-.56,3.51,.94,4.49,1.5,.98,3.51,.56,4.49-.94h0c.98-1.5,.56-3.51-.94-4.49Zm.61,4.26c-.86,1.31-2.62,1.69-3.93,.83-1.31-.86-1.69-2.62-.83-3.93,.86-1.31,2.62-1.69,3.93-.83,1.32,.85,1.69,2.61,.84,3.93,0,0,0,0,0,.01h0Zm-.61-4.27c-1.5-.98-3.51-.56-4.49,.94-.98,1.5-.56,3.51,.94,4.49,1.5,.98,3.51,.56,4.49-.94h0c.98-1.5,.56-3.51-.94-4.49Zm.61,4.26c-.86,1.31-2.62,1.69-3.93,.83-1.31-.86-1.69-2.62-.83-3.93,.86-1.31,2.62-1.69,3.93-.83,1.32,.85,1.69,2.61,.84,3.93,0,0,0,0,0,.01h0Zm1.34-7.27c-3.16-2.05-7.38-1.15-9.43,2-2.05,3.16-1.15,7.38,2,9.43,3.16,2.05,7.38,1.16,9.43-2,2.06-3.16,1.16-7.38-1.99-9.44,0,0,0,0,0,0h0Zm-.59,7.75c-1.13,1.73-3.44,2.22-5.17,1.1-1.73-1.13-2.22-3.44-1.1-5.17s3.44-2.22,5.17-1.1c0,0,0,0,0,0,1.73,1.13,2.22,3.44,1.09,5.17,0,0,0,0,0,0h0Zm-.42-.28c.97-1.5,.54-3.5-.96-4.47s-3.5-.54-4.47,.96c-.96,1.49-.54,3.48,.95,4.46,1.5,.97,3.5,.55,4.48-.94h0Zm-.33-.23c-.86,1.31-2.62,1.69-3.93,.83-1.31-.86-1.69-2.62-.83-3.93,.86-1.31,2.62-1.69,3.93-.83,1.32,.85,1.69,2.61,.84,3.93,0,0,0,0,0,.01h0Zm-.61-4.27c-1.5-.98-3.51-.56-4.49,.94-.98,1.5-.56,3.51,.94,4.49,1.5,.98,3.51,.56,4.49-.94h0c.98-1.5,.56-3.51-.94-4.49Zm.61,4.26c-.86,1.31-2.62,1.69-3.93,.83-1.31-.86-1.69-2.62-.83-3.93,.86-1.31,2.62-1.69,3.93-.83,1.32,.85,1.69,2.61,.84,3.93,0,0,0,0,0,.01h0Zm-.61-4.27c-1.5-.98-3.51-.56-4.49,.94-.98,1.5-.56,3.51,.94,4.49,1.5,.98,3.51,.56,4.49-.94h0c.98-1.5,.56-3.51-.94-4.49Zm.61,4.26c-.86,1.31-2.62,1.69-3.93,.83-1.31-.86-1.69-2.62-.83-3.93,.86-1.31,2.62-1.69,3.93-.83,1.32,.85,1.69,2.61,.84,3.93,0,0,0,0,0,.01h0Z" fill="#dbdbdb"/><polygon points="161.51 257.2 159.31 255.77 158.42 257.4 160.37 258.67 161.51 257.2" fill="#dbdbdb"/><polygon points="157.81 253.73 157.26 251.17 155.48 251.69 155.96 253.98 157.81 253.73" fill="#dbdbdb"/><polygon points="157.64 248.67 159.07 246.47 157.43 245.58 156.16 247.53 157.64 248.67" fill="#dbdbdb"/><polygon points="161.1 244.96 163.67 244.42 163.14 242.64 160.86 243.12 161.1 244.96" fill="#dbdbdb"/><polygon points="166.17 244.8 168.37 246.23 169.26 244.59 167.3 243.32 166.17 244.8" fill="#dbdbdb"/><polygon points="169.87 248.26 170.41 250.83 172.2 250.3 171.72 248.02 169.87 248.26" fill="#dbdbdb"/><polygon points="170.04 253.33 168.61 255.53 170.24 256.42 171.51 254.46 170.04 253.33" fill="#dbdbdb"/><polygon points="166.57 257.03 164.01 257.57 164.53 259.36 166.81 258.88 166.57 257.03" fill="#dbdbdb"/><polygon points="213.5 275.69 216.68 276.28 225.78 214.66 222.16 213.99 213.5 275.69" fill="#ffc727"/><path d="M185.63,265.93l4.73-41.18,31.8-10.76s-8.66,62.37-8.66,61.7l-27.87-9.76Z" fill="#ffc727"/><path d="M185.63,265.93l4.73-41.18,31.8-10.76s-8.66,62.37-8.66,61.7l-27.87-9.76Z" fill="#fff" isolation="isolate" opacity=".4"/><path d="M108.55,226.42c-.52-3.41-.8-6.85-1-10.29-.1-1.72-.14-3.45-.18-5.17s-.06-3.45,0-5.18v-.45h.44c6.32-.34,12.63-.76,19-1s12.64-.6,19-.8c-6.31,.57-12.61,1.06-18.92,1.52s-12.63,.84-18.94,1.27l.46-.47v5.15l.06,5.15c0,1.72,0,3.44,.09,5.15v5.12Z" fill="#fff"/><path d="M194.79,225.36c2-.94,4-1.81,6-2.61s4.04-1.57,6.12-2.32c2.06-.7,4.13-1.39,6.24-2,2.1-.62,4.23-1.12,6.39-1.49l.53-.09-.09,.51c-.5,2.67-1,5.33-1.64,8,.23-2.71,.56-5.41,.9-8.1l.44,.43c-2.1,.5-4.18,1.08-6.26,1.7s-4.15,1.27-6.21,1.94l-12.42,4.03Z" fill="#fff"/><polygon points="122.31 202.4 122.84 212.7 123.3 223 124.1 243.61 124.72 264.22 124.97 274.53 125.14 284.84 124.6 274.55 124.14 264.24 123.35 243.64 122.73 223.02 122.48 212.71 122.31 202.4" isolation="isolate" opacity=".1"/><path d="M119.36,208.61c.22,1.04-.45,2.07-1.49,2.29-.46,.1-.95,.02-1.36-.22-.94-.58-1.24-1.81-.66-2.75,.03-.04,.05-.08,.08-.12,.33-.42,.81-.69,1.34-.75,.99-.1,1.89,.57,2.09,1.55Zm0,0c-.18-.84-1-1.39-1.84-1.21-.84,.18-1.39,1-1.21,1.84,.18,.84,1,1.39,1.84,1.21,.36-.07,.68-.27,.91-.56,.28-.36,.39-.83,.3-1.28Z" isolation="isolate" opacity=".1"/><path d="M120.07,220.96c.17,.97-.39,1.92-1.33,2.24-1.02,.31-2.1-.26-2.41-1.28-.02-.07-.04-.13-.05-.2-.1-.55,.03-1.11,.36-1.56,.33-.42,.81-.69,1.34-.75,.99-.1,1.89,.57,2.09,1.55Zm0,0c-.16-.84-.96-1.39-1.8-1.23-.07,.01-.14,.03-.2,.05-.83,.26-1.29,1.13-1.04,1.96s1.13,1.29,1.96,1.04c.77-.24,1.24-1.03,1.07-1.82Z" isolation="isolate" opacity=".1"/><path d="M120.52,234.07c.17,.97-.39,1.92-1.33,2.24-.51,.15-1.06,.09-1.52-.17-.48-.29-.82-.76-.94-1.31-.1-.55,.03-1.11,.36-1.56,.65-.85,1.86-1.01,2.7-.37,.38,.29,.63,.7,.73,1.17h0Zm0,0c-.16-.84-.96-1.39-1.8-1.23-.07,.01-.14,.03-.2,.05-.83,.26-1.29,1.13-1.04,1.96s1.13,1.29,1.96,1.04c.77-.24,1.24-1.03,1.07-1.82Z" isolation="isolate" opacity=".1"/><path d="M120.97,247.18c.17,.97-.39,1.92-1.33,2.24-1.07,.28-2.16-.35-2.45-1.42,0-.02-.01-.04-.01-.06-.1-.55,.03-1.11,.36-1.56,.65-.85,1.86-1.01,2.7-.37,.38,.29,.63,.7,.73,1.17h0Zm0,0c-.09-.45-.37-.84-.77-1.07-.38-.2-.83-.25-1.25-.12-.83,.26-1.28,1.14-1.02,1.97,.22,.7,.91,1.16,1.64,1.09,.43-.04,.83-.25,1.1-.59,.28-.36,.39-.83,.3-1.28Z" isolation="isolate" opacity=".1"/><path d="M121.42,260.28c.22,1.04-.45,2.07-1.49,2.29-.46,.1-.95,.02-1.36-.22-.48-.28-.82-.75-.94-1.3-.11-.55,.03-1.12,.36-1.57,.33-.42,.81-.69,1.34-.75,.98-.07,1.87,.59,2.09,1.55Zm0,0c-.17-.84-.99-1.39-1.84-1.22-.06,.01-.11,.03-.16,.04-.83,.26-1.28,1.14-1.02,1.97,.22,.7,.91,1.16,1.64,1.09,.86-.07,1.5-.82,1.43-1.68,0-.07-.02-.13-.03-.2h-.02Z" isolation="isolate" opacity=".1"/><path d="M121.91,273.39c.21,1.05-.46,2.07-1.51,2.28-1.05,.21-2.07-.46-2.28-1.51-.22-1.05,.46-2.08,1.51-2.29,.06-.01,.13-.02,.19-.03,.98-.07,1.87,.59,2.09,1.55Zm0,0c-.09-.45-.37-.83-.77-1.06-.38-.21-.83-.25-1.25-.12-.83,.26-1.28,1.14-1.02,1.97,.22,.7,.91,1.16,1.64,1.09,.86-.07,1.5-.82,1.43-1.68,0-.07-.02-.13-.03-.2h0Z" isolation="isolate" opacity=".1"/><rect x="78.83" y="300.41" width="48.98" height="5.72" transform="translate(-83.52 43) rotate(-16.86)" fill="#ffc727"/><rect x="78.83" y="300.41" width="48.98" height="5.72" transform="translate(-83.52 43) rotate(-16.86)" fill="#fff" isolation="isolate" opacity=".4"/><rect x="99.15" y="299.05" width="5.72" height="8.5" transform="translate(-87.11 45.18) rotate(-17.64)" fill="#ffc727"/><polygon points="80.33 321.14 68.24 268.76 31.73 277.42 49.7 328.47 80.33 321.14" fill="#ffc727"/><polygon points="88.43 318.48 80.33 321.14 68.24 268.76 79.89 271.54 88.43 318.48" fill="#ffc727"/><polygon points="88.43 318.48 80.33 321.14 68.24 268.76 79.89 271.54 88.43 318.48" isolation="isolate" opacity=".2"/><circle cx="126.77" cy="296.17" r="6.21" fill="#ffc727"/><rect x="210.45" y="278.7" width="5.72" height="48.98" transform="translate(-138.96 418.66) rotate(-73.02)" fill="#ffc727"/><rect x="210.45" y="278.7" width="5.72" height="48.98" transform="translate(-138.96 418.66) rotate(-73.02)" fill="#fff" isolation="isolate" opacity=".4"/><rect x="210.34" y="300.31" width="8.5" height="5.72" transform="translate(-139.61 414.99) rotate(-72.23)" fill="#ffc727"/><polygon points="236.26 321.1 248.47 268.74 284.96 277.48 266.88 328.49 236.26 321.1" fill="#ffc727"/><polygon points="228.17 318.42 236.26 321.1 248.47 268.74 236.81 271.49 228.17 318.42" fill="#ffc727"/><polygon points="228.17 318.42 236.26 321.1 248.47 268.74 236.81 271.49 228.17 318.42" isolation="isolate" opacity=".2"/><path d="M183.67,296.02c-.01,3.44,2.76,6.23,6.2,6.24,3.44,.01,6.23-2.76,6.24-6.2,.01-3.44-2.76-6.23-6.2-6.24,0,0,0,0,0,0-3.43-.01-6.22,2.76-6.23,6.19,0,0,0,0,0,.01Z" fill="#ffc727"/><path d="M230.57,231.41c.15-.14,15.21-14.1,32.92-9.32,18.11,4.88,33.06,32.16,33.21,32.44l5-2.72c-.66-1.21-16.26-29.73-36.76-35.25-20.86-5.62-37.65,10-38.35,10.7l3.98,4.15Z" fill="#ffc727"/><path d="M230.57,231.41c.15-.14,15.21-14.1,32.92-9.32,18.11,4.88,33.06,32.16,33.21,32.44l5-2.72c-.66-1.21-16.26-29.73-36.76-35.25-20.86-5.62-37.65,10-38.35,10.7l3.98,4.15Z" fill="#fff" isolation="isolate" opacity=".4"/><path d="M290.03,281.99l10.88-5.71c-1.37-2.62-2.22-5.48-2.51-8.42-.24-4,1.34-5.36,3.07-6.28,3.8-2,6.07-1.21,7.62-.3,2.17,1.29,4.38,3.91,6.22,7.4l10.85-5.73c-3-5.62-6.62-9.74-10.84-12.23s-11-4.5-19.57,0c-6.67,3.52-10.07,9.86-9.59,17.86,.39,4.68,1.71,9.24,3.87,13.41Z" fill="#ffc727"/><path d="M232.91,212.28c2.35-1.62,4.76-3.15,7.17-4.67s4.86-3,7.31-4.44,4.92-2.87,7.42-4.24l3.76-2.05c1.27-.65,2.52-1.33,3.81-2-1.17,.82-2.38,1.59-3.56,2.38l-3.62,2.29c-2.41,1.53-4.85,3-7.3,4.44s-4.93,2.87-7.43,4.24-5.05,2.8-7.56,4.05Z" fill="#263238"/><path d="M226.63,235.7c3.37,1.92,6.56,4.09,9.71,6.31s6.21,4.56,9.12,7.12c-3.34-1.94-6.58-4.05-9.71-6.31-3.12-2.25-6.21-4.54-9.12-7.12Z" fill="#263238"/><path d="M232.16,232.82c2.6,.79,5.16,1.69,7.71,2.59s5.04,1.87,7.61,2.87,5,2,7.52,3l3.74,1.6c1.23,.57,2.47,1.11,3.69,1.7-1.3-.38-2.58-.83-3.87-1.24l-3.83-1.34c-2.56-.9-5.09-1.87-7.61-2.84s-5-2-7.53-3-4.98-2.16-7.43-3.34Z" fill="#263238"/><path d="M239.54,214.5c2.49-.65,5-1.19,7.51-1.71s5-1,7.56-1.45,5.05-.86,7.59-1.22l3.81-.53c1.28-.14,2.55-.31,3.84-.42-1.25,.33-2.5,.6-3.75,.91l-3.76,.8c-2.51,.53-5,1-7.56,1.45s-5.06,.86-7.6,1.21-5.08,.74-7.64,.96Z" fill="#263238"/><path d="M179.53,230.07c.43-2.03,1.11-4,2-5.88,.87-1.9,1.98-3.67,3.31-5.28,1.33-1.64,3.05-2.93,5-3.75,2.04-.76,4.29-.73,6.31,.06,2.03,.84,3.65,2.45,4.51,4.47,.45,.98,.73,2.03,.84,3.11,.14,1.1,.01,2.22-.37,3.27-.21,.57-.6,1.07-1.1,1.41-.27,.18-.58,.3-.91,.34-.34,.06-.68,.02-1-.09-.56-.28-1.02-.74-1.29-1.31-.25-.49-.45-1.01-.59-1.54-.51-2.06-.68-4.19-.52-6.31,.21-4.24,1.46-8.36,3.64-12,1.12-1.82,2.59-3.39,4.34-4.61,1.75-1.23,3.77-2.01,5.89-2.28,1.04-.19,2.09-.28,3.14-.27,.53-.01,1.06,.02,1.58,.1,.52,.03,1.05,.1,1.56,.21,2.06,.41,4.04,1.16,5.86,2.21,1.79,1.07,3.44,2.36,4.9,3.85,1.47,1.46,2.77,3.09,3.86,4.85-2.33-3.41-5.41-6.24-9-8.27-1.79-.97-3.72-1.65-5.73-2-.99-.15-2-.23-3-.23-1.01,.01-2.01,.13-3,.33-1.99,.3-3.88,1.07-5.53,2.23-1.64,1.17-3.02,2.66-4.06,4.38-2.07,3.51-3.24,7.47-3.43,11.54-.16,2.01-.01,4.04,.45,6,.24,.92,.67,2,1.3,2.24,.08,.02,.15,.04,.23,.05,.1,.02,.2,.02,.3,0,.19-.02,.37-.09,.53-.19,.35-.25,.62-.6,.76-1,.34-.9,.45-1.87,.33-2.83-.1-.98-.35-1.95-.75-2.85-.76-1.83-2.19-3.3-4-4.11-1.85-.77-3.91-.83-5.8-.18-1.89,.75-3.56,1.94-4.88,3.48-2.7,3.13-4.64,6.85-5.68,10.85Z" fill="#263238"/><path d="M87.13,255.98c.98-1.82,2.34-3.4,4-4.63,1.66-1.28,3.57-2.19,5.6-2.69,2.06-.51,4.21-.46,6.25,.13,2.03,.63,3.87,1.78,5.34,3.32,1.46,1.53,2.6,3.35,3.34,5.33,.78,1.98,1.12,4.11,1,6.23-.04,1.14-.44,2.23-1.16,3.12-.44,.47-1.05,.74-1.69,.76-.6,.01-1.19-.12-1.72-.39-.55-.29-.98-.76-1.24-1.32-.24-.53-.37-1.1-.38-1.68-.01-1.09,.17-2.17,.53-3.19,.7-2,1.73-3.86,3.06-5.51,1.29-1.66,2.82-3.12,4.53-4.35,3.42-2.56,7.68-3.73,11.92-3.28,2.09,.25,4.11,.91,5.95,1.94,1.82,1.04,3.43,2.42,4.73,4.07,1.27,1.64,2.31,3.45,3.08,5.38,.79,1.91,1.34,3.91,1.64,5.95-.78-4.03-2.54-7.81-5.12-11-1.28-1.56-2.86-2.86-4.64-3.82-1.78-.95-3.73-1.53-5.73-1.72-4.03-.37-8.06,.78-11.29,3.22-3.27,2.37-5.77,5.65-7.19,9.43-.34,.91-.51,1.88-.51,2.85-.06,.88,.36,1.72,1.1,2.2,.38,.2,.82,.3,1.25,.29,.4,0,.78-.18,1.06-.47,.57-.73,.89-1.63,.92-2.56,.1-2-.24-3.99-1-5.84-.7-1.88-1.76-3.6-3.12-5.08-1.36-1.48-3.09-2.59-5-3.22-1.92-.61-3.96-.7-5.92-.26-3.97,.91-7.42,3.35-9.59,6.79Z" fill="#263238"/><path d="M90.83,69.52c-.05-4.13-1.04-8.19-2.9-11.87-.91-1.81-2.25-3.38-3.9-4.55-1.68-1.09-3.7-1.52-5.68-1.21-1.95,.34-3.69,1.42-4.88,3-.6,.78-1.08,1.65-1.41,2.58-.33,.9-.46,1.87-.36,2.83,.05,.42,.23,.82,.51,1.14,.13,.14,.29,.25,.47,.32,.09,.03,.19,.06,.29,.08,.08,0,.15,0,.23,0,.69-.13,1.35-1,1.8-1.86,.93-1.79,1.57-3.71,1.91-5.7,.79-3.99,.6-8.1-.56-12-.6-1.92-1.59-3.69-2.9-5.22-1.32-1.52-2.98-2.71-4.84-3.48-.91-.44-1.86-.79-2.84-1.05-.49-.13-.99-.23-1.49-.3-.49-.1-1-.17-1.5-.19-2.02-.13-4.04,.07-6,.59-3.97,1.12-7.64,3.13-10.71,5.88,1.48-1.45,3.12-2.73,4.9-3.79,1.78-1.09,3.69-1.95,5.68-2.56,2.01-.59,4.11-.84,6.21-.75,.53,.01,1.05,.07,1.57,.17,.52,.04,1.04,.13,1.55,.27,1.03,.25,2.03,.58,3,1,1.99,.77,3.77,2.01,5.18,3.62,1.4,1.61,2.46,3.48,3.11,5.51,1.25,4.04,1.48,8.33,.69,12.48-.35,2.09-1.03,4.12-2,6-.26,.48-.58,.94-.94,1.35-.39,.5-.95,.85-1.57,1-.67,.05-1.33-.2-1.79-.69-.41-.46-.66-1.03-.73-1.64-.13-1.1,.02-2.22,.42-3.26,.36-1.02,.89-1.97,1.56-2.82,1.32-1.76,3.27-2.93,5.44-3.27,2.16-.29,4.35,.23,6.15,1.45,1.71,1.26,3.09,2.92,4,4.84,.92,1.88,1.59,3.87,2,5.92,.34,2.04,.45,4.11,.33,6.18Z" fill="#263238"/><path d="M261.68,66.65c-4.02-.93-8.2-.93-12.22,0-1.97,.46-3.8,1.4-5.33,2.74-1.45,1.37-2.34,3.24-2.5,5.23-.11,1.98,.54,3.93,1.81,5.45,.62,.78,1.36,1.46,2.19,2,.8,.54,1.71,.88,2.66,1,.42,.05,.85-.03,1.23-.23,.17-.09,.31-.22,.42-.38,.06-.07,.09-.18,.15-.26s0-.16,.05-.23c0-.69-.68-1.55-1.39-2.19-1.54-1.3-3.26-2.36-5.12-3.14-3.7-1.7-7.76-2.47-11.82-2.25-2.01,.13-3.97,.68-5.76,1.6-1.79,.93-3.33,2.26-4.51,3.89-.64,.79-1.2,1.63-1.68,2.52-.25,.44-.46,.9-.64,1.38-.22,.45-.4,.93-.54,1.41-.6,1.94-.88,3.97-.83,6,.15,4.13,1.25,8.16,3.22,11.79-1.07-1.77-1.93-3.67-2.55-5.65-.64-1.98-1.03-4.04-1.16-6.12-.1-2.1,.14-4.2,.71-6.22,.14-.51,.32-1.01,.53-1.49,.18-.49,.39-.98,.64-1.44,.47-.94,1.04-1.84,1.68-2.67,1.22-1.76,2.84-3.19,4.73-4.19,1.89-.98,3.96-1.58,6.08-1.74,4.22-.27,8.45,.51,12.3,2.25,1.95,.83,3.77,1.96,5.37,3.35,.41,.37,.78,.78,1.1,1.23,.38,.5,.58,1.12,.57,1.75-.04,.34-.17,.66-.37,.93-.19,.27-.43,.49-.72,.65-.54,.29-1.15,.4-1.76,.33-1.1-.14-2.16-.54-3.07-1.17-.91-.59-1.71-1.33-2.38-2.18-1.39-1.68-2.07-3.83-1.91-6,.22-2.16,1.23-4.17,2.84-5.64,1.63-1.36,3.56-2.3,5.64-2.74,2.04-.44,4.13-.61,6.21-.51,2.07,.08,4.13,.39,6.13,.94Z" fill="#263238"/><path d="M183.32,54.52c-.67-2.39-.8-4.9-.39-7.35,.36-2.49,1.23-4.87,2.57-7,1.33-2.15,3.21-3.91,5.44-5.1,2.26-1.15,4.78-1.7,7.32-1.6,2.52,.09,5,.69,7.29,1.76,2.32,1.02,4.4,2.54,6.07,4.45,.91,.99,1.48,2.25,1.6,3.59,.01,.74-.27,1.46-.78,2-.49,.5-1.09,.87-1.76,1.08-.69,.2-1.44,.17-2.11-.09-.63-.26-1.21-.63-1.7-1.11-.91-.91-1.66-1.98-2.2-3.15-1.07-2.29-1.75-4.74-2-7.25-.27-2.49-.19-5,.24-7.47,.78-5.03,3.43-9.58,7.42-12.74,4.01-3.1,9.1-4.47,14.13-3.8,2.46,.32,4.87,.99,7.14,2,2.27,.96,4.42,2.21,6.39,3.7-4.03-2.81-8.69-4.59-13.57-5.16-7.41-.82-14.6,2.88-18.23,9.39-1.17,2.12-1.97,4.42-2.36,6.8-.83,4.78-.23,9.71,1.73,14.15,.5,1.07,1.17,2.05,2,2.89,.71,.83,1.81,1.22,2.88,1,.51-.16,.98-.45,1.36-.83,.35-.36,.54-.85,.53-1.35-.12-1.12-.6-2.17-1.37-3-1.59-1.81-3.54-3.25-5.74-4.23-2.2-1.03-4.58-1.62-7-1.74-2.41-.13-4.82,.36-7,1.41-2.16,1.09-3.99,2.74-5.31,4.77-2.7,4.12-3.64,9.16-2.59,13.98Z" fill="#263238"/><path d="M83.78,256.2c-2.24-.7-4.62,.54-5.33,2.78-.7,2.24,.54,4.62,2.78,5.33,2.23,.7,4.61-.54,5.32-2.77,.71-2.24-.54-4.63-2.78-5.34Zm2.29,5.18c-.62,1.96-2.71,3.06-4.68,2.44-1.96-.62-3.06-2.71-2.44-4.68,.62-1.96,2.71-3.05,4.67-2.44,1.96,.62,3.05,2.71,2.44,4.68h0Zm-2.29-5.18c-2.24-.7-4.62,.54-5.33,2.78-.7,2.24,.54,4.62,2.78,5.33,2.23,.7,4.61-.54,5.32-2.77,.71-2.24-.54-4.63-2.78-5.34Zm2.29,5.18c-.62,1.96-2.71,3.06-4.68,2.44-1.96-.62-3.06-2.71-2.44-4.68,.62-1.96,2.71-3.05,4.67-2.44,1.96,.62,3.05,2.71,2.44,4.68h0Zm-2.29-5.18c-2.24-.7-4.62,.54-5.33,2.78-.7,2.24,.54,4.62,2.78,5.33,2.23,.7,4.61-.54,5.32-2.77,.71-2.24-.54-4.63-2.78-5.34Zm2.29,5.18c-.62,1.96-2.71,3.06-4.68,2.44-1.96-.62-3.06-2.71-2.44-4.68,.62-1.96,2.71-3.05,4.67-2.44,1.96,.62,3.05,2.71,2.44,4.68h0Zm-.87-9.67c-4.73-1.52-9.8,1.09-11.32,5.83-1.52,4.73,1.09,9.8,5.83,11.32,4.73,1.52,9.8-1.09,11.32-5.83,0-.03,.02-.05,.02-.08,1.46-4.72-1.15-9.73-5.85-11.24Zm2,10c-.82,2.59-3.57,4.02-6.16,3.21-2.59-.82-4.02-3.57-3.21-6.16,.81-2.58,3.57-4.02,6.16-3.21,2.59,.82,4.02,3.57,3.21,6.16,0,0,0,.01,0,.02v-.02Zm-.62-.19c.71-2.24-.53-4.63-2.77-5.33-2.24-.71-4.63,.53-5.33,2.77-.71,2.24,.53,4.63,2.77,5.33,0,0,0,0,0,0,2.23,.69,4.6-.53,5.32-2.75v-.02Zm-.48-.16c-.62,1.96-2.71,3.06-4.68,2.44-1.96-.62-3.06-2.71-2.44-4.68,.62-1.96,2.71-3.05,4.67-2.44,1.97,.63,3.06,2.73,2.43,4.7,0,0,0,0,0,0v-.02Zm-2.28-5.18c-2.24-.7-4.62,.54-5.33,2.78-.7,2.24,.54,4.62,2.78,5.33,2.23,.7,4.61-.54,5.32-2.77,.69-2.24-.56-4.62-2.79-5.32v-.02Zm2.3,5.18c-.62,1.96-2.71,3.06-4.68,2.44-1.96-.62-3.06-2.71-2.44-4.68,.62-1.96,2.71-3.05,4.67-2.44,1.97,.63,3.06,2.73,2.43,4.7,0,0,0,0,0,0v-.02Zm-2.28-5.18c-2.24-.7-4.62,.54-5.33,2.78-.7,2.24,.54,4.62,2.78,5.33,2.23,.7,4.61-.54,5.32-2.77,.69-2.24-.56-4.62-2.79-5.32v-.02Zm2.3,5.18c-.62,1.96-2.71,3.06-4.68,2.44-1.96-.62-3.06-2.71-2.44-4.68,.62-1.96,2.71-3.05,4.67-2.44,1.97,.63,3.06,2.73,2.43,4.7,0,0,0,0,0,0v-.02Z" fill="#455a64"/><polygon points="81.56 268.97 78.28 267.93 77.72 270.32 80.65 271.24 81.56 268.97" fill="#455a64"/><polygon points="75.66 265.89 74.06 262.83 71.99 264.13 73.4 266.85 75.66 265.89" fill="#455a64"/><polygon points="73.66 259.53 74.69 256.25 72.31 255.7 71.39 258.62 73.66 259.53" fill="#455a64"/><polygon points="76.73 253.63 79.79 252.04 78.5 249.96 75.78 251.38 76.73 253.63" fill="#455a64"/><polygon points="83.09 251.63 86.37 252.66 86.93 250.28 84 249.36 83.09 251.63" fill="#455a64"/><polygon points="89 254.71 90.59 257.76 92.66 256.47 91.25 253.75 89 254.71" fill="#455a64"/><polygon points="91 261.06 89.96 264.35 92.34 264.9 93.27 261.97 91 261.06" fill="#455a64"/><polygon points="87.92 266.97 84.86 268.56 86.16 270.63 88.87 269.22 87.92 266.97" fill="#455a64"/><path d="M249.58,227.63c4.51-6.08,3.24-14.66-2.84-19.17-6.08-4.51-14.66-3.24-19.17,2.84s-3.24,14.66,2.84,19.17c0,0,0,0,0,0,6.08,4.5,14.65,3.23,19.16-2.84Zm-5.86-4.35c-2.11,2.84-6.12,3.43-8.95,1.32-2.84-2.11-3.43-6.12-1.32-8.95,2.11-2.84,6.12-3.43,8.95-1.32,0,0,0,0,0,0,2.84,2.1,3.43,6.1,1.33,8.94,0,0,0,0,0,.01Z" fill="#263238"/><polygon points="232.87 231.58 228.64 228.44 226.65 231.61 230.41 234.4 232.87 231.58" fill="#263238"/><polygon points="225.88 224.18 225.1 218.97 221.46 219.8 222.14 224.44 225.88 224.18" fill="#263238"/><polygon points="226.16 214 229.3 209.77 226.14 207.78 223.34 211.54 226.16 214" fill="#263238"/><polygon points="233.56 207.01 238.77 206.23 237.94 202.59 233.31 203.27 233.56 207.01" fill="#263238"/><polygon points="243.74 207.29 247.97 210.43 249.96 207.27 246.2 204.47 243.74 207.29" fill="#263238"/><polygon points="250.73 214.69 251.51 219.91 255.15 219.07 254.47 214.44 250.73 214.69" fill="#263238"/><polygon points="250.45 224.87 247.31 229.1 250.48 231.09 253.27 227.33 250.45 224.87" fill="#263238"/><polygon points="243.05 231.87 237.84 232.64 238.67 236.28 243.3 235.6 243.05 231.87" fill="#263238"/><path d="M233.68,220.12l2.91,3.67,4.63-.69,1.72-4.35-2.91-3.67-4.63,.69-1.72,4.35Zm5.51-1.87c.66,.49,.79,1.42,.3,2.07-.49,.66-1.42,.79-2.07,.31-.66-.49-.79-1.42-.3-2.08,.49-.65,1.41-.77,2.06-.28,0,0,0,0,0,0v-.03Z" fill="#263238"/><path d="M243.4,13.45c-1.96-.62-4.05,.47-4.67,2.43-.62,1.96,.47,4.05,2.43,4.67,1.96,.62,4.04-.47,4.66-2.43,.62-1.95-.45-4.04-2.41-4.66,0,0-.02,0-.02,0Zm2,4.53c-.54,1.72-2.38,2.68-4.1,2.14-1.72-.54-2.68-2.38-2.14-4.1s2.38-2.68,4.1-2.14c0,0,0,0,0,0,1.72,.55,2.67,2.38,2.13,4.1Zm-2-4.53c-1.96-.62-4.05,.47-4.67,2.43-.62,1.96,.47,4.05,2.43,4.67,1.96,.62,4.04-.47,4.66-2.43,.62-1.95-.45-4.04-2.41-4.66,0,0-.02,0-.02,0Zm2,4.53c-.54,1.72-2.38,2.68-4.1,2.14-1.72-.54-2.68-2.38-2.14-4.1s2.38-2.68,4.1-2.14c0,0,0,0,0,0,1.72,.55,2.67,2.38,2.13,4.1Zm-2-4.53c-1.96-.62-4.05,.47-4.67,2.43-.62,1.96,.47,4.05,2.43,4.67,1.96,.62,4.04-.47,4.66-2.43,.62-1.95-.45-4.04-2.41-4.66,0,0-.02,0-.02,0Zm2,4.53c-.54,1.72-2.38,2.68-4.1,2.14-1.72-.54-2.68-2.38-2.14-4.1s2.38-2.68,4.1-2.14c0,0,0,0,0,0,1.72,.55,2.67,2.38,2.13,4.1Zm-.76-8.46c-4.13-1.3-8.53,.99-9.84,5.12-1.3,4.13,.99,8.53,5.12,9.84,4.13,1.3,8.53-.99,9.84-5.12,0,0,0,0,0,0,1.29-4.13-1-8.52-5.12-9.83h0Zm1.75,8.77c-.71,2.27-3.13,3.53-5.39,2.81-2.27-.71-3.53-3.13-2.81-5.39,.71-2.27,3.13-3.53,5.39-2.81,0,0,0,0,0,0,2.25,.72,3.5,3.12,2.81,5.38h0Zm-.56-.16c.62-1.96-.47-4.05-2.43-4.67-1.96-.62-4.05,.47-4.67,2.43-.62,1.96,.47,4.05,2.43,4.67,0,0,0,0,0,0,1.96,.61,4.04-.47,4.66-2.43h0Zm-.43-.14c-.54,1.72-2.38,2.68-4.1,2.14-1.72-.54-2.68-2.38-2.14-4.1s2.38-2.68,4.1-2.14c0,0,0,0,0,0,1.72,.55,2.67,2.38,2.13,4.1Zm-2-4.53c-1.96-.62-4.05,.47-4.67,2.43-.62,1.96,.47,4.05,2.43,4.67,1.96,.62,4.04-.47,4.66-2.43,.62-1.95-.45-4.04-2.41-4.66,0,0-.02,0-.02,0Zm2,4.53c-.54,1.72-2.38,2.68-4.1,2.14-1.72-.54-2.68-2.38-2.14-4.1s2.38-2.68,4.1-2.14c0,0,0,0,0,0,1.72,.55,2.67,2.38,2.13,4.1Zm-2-4.53c-1.96-.62-4.05,.47-4.67,2.43-.62,1.96,.47,4.05,2.43,4.67,1.96,.62,4.04-.47,4.66-2.43,.62-1.95-.45-4.04-2.41-4.66,0,0-.02,0-.02,0Zm2,4.53c-.54,1.72-2.38,2.68-4.1,2.14-1.72-.54-2.68-2.38-2.14-4.1s2.38-2.68,4.1-2.14c0,0,0,0,0,0,1.72,.55,2.67,2.38,2.13,4.1Z" fill="#263238"/><polygon points="241.46 24.62 238.58 23.71 238.1 25.8 240.66 26.61 241.46 24.62" fill="#263238"/><polygon points="236.29 21.93 234.9 19.25 233.08 20.38 234.32 22.76 236.29 21.93" fill="#263238"/><polygon points="234.54 16.37 235.45 13.49 233.36 13.01 232.55 15.57 234.54 16.37" fill="#263238"/><polygon points="237.23 11.2 239.91 9.8 238.78 7.99 236.4 9.23 237.23 11.2" fill="#263238"/><polygon points="242.79 9.45 245.67 10.35 246.15 8.27 243.59 7.46 242.79 9.45" fill="#263238"/><polygon points="247.96 12.14 249.36 14.82 251.17 13.68 249.93 11.3 247.96 12.14" fill="#263238"/><polygon points="249.71 17.7 248.81 20.58 250.89 21.06 251.7 18.5 249.71 17.7" fill="#263238"/><polygon points="247.02 22.87 244.34 24.26 245.48 26.08 247.86 24.84 247.02 22.87" fill="#263238"/><path d="M221.64,103.75c-1.96-.62-4.05,.47-4.67,2.43-.62,1.96,.47,4.05,2.43,4.67,1.96,.62,4.05-.47,4.67-2.43,0,0,0,0,0,0,.61-1.96-.47-4.04-2.43-4.66Zm2,4.53c-.54,1.72-2.38,2.68-4.1,2.14-1.72-.54-2.68-2.38-2.14-4.1s2.38-2.68,4.1-2.14c0,0,0,0,0,0,1.72,.54,2.67,2.38,2.12,4.09,0,0,0,0,0,0h.01Zm-2-4.53c-1.96-.62-4.05,.47-4.67,2.43-.62,1.96,.47,4.05,2.43,4.67,1.96,.62,4.05-.47,4.67-2.43,0,0,0,0,0,0,.61-1.96-.47-4.04-2.43-4.66Zm2,4.53c-.54,1.72-2.38,2.68-4.1,2.14-1.72-.54-2.68-2.38-2.14-4.1s2.38-2.68,4.1-2.14c0,0,0,0,0,0,1.72,.54,2.67,2.38,2.12,4.09,0,0,0,0,0,0h.01Zm-2-4.53c-1.96-.62-4.05,.47-4.67,2.43-.62,1.96,.47,4.05,2.43,4.67,1.96,.62,4.05-.47,4.67-2.43,0,0,0,0,0,0,.61-1.96-.47-4.04-2.43-4.66Zm2,4.53c-.54,1.72-2.38,2.68-4.1,2.14-1.72-.54-2.68-2.38-2.14-4.1s2.38-2.68,4.1-2.14c0,0,0,0,0,0,1.72,.54,2.67,2.38,2.12,4.09,0,0,0,0,0,0h.01Zm-.75-8.47c-4.13-1.3-8.53,.99-9.83,5.12-1.3,4.13,.99,8.53,5.12,9.83,4.13,1.3,8.53-.99,9.83-5.12,1.3-4.12-.98-8.53-5.1-9.84h-.02Zm1.74,8.78c-.71,2.27-3.13,3.53-5.39,2.81-2.27-.71-3.53-3.13-2.81-5.39,.71-2.27,3.13-3.53,5.39-2.81,0,0,0,0,0,0,2.26,.72,3.51,3.13,2.8,5.39h.01Zm-.55-.18c.62-1.96-.47-4.05-2.43-4.67-1.96-.62-4.05,.47-4.67,2.43-.62,1.96,.47,4.04,2.43,4.66,1.96,.61,4.04-.47,4.66-2.43h.01Zm-.44-.13c-.54,1.72-2.38,2.68-4.1,2.14-1.72-.54-2.68-2.38-2.14-4.1s2.38-2.68,4.1-2.14c0,0,0,0,0,0,1.72,.54,2.67,2.38,2.12,4.09,0,0,0,0,0,0h.01Zm-2-4.53c-1.96-.62-4.05,.47-4.67,2.43-.62,1.96,.47,4.05,2.43,4.67,1.96,.62,4.05-.47,4.67-2.43,0,0,0,0,0,0,.61-1.96-.47-4.04-2.43-4.66Zm2,4.53c-.54,1.72-2.38,2.68-4.1,2.14-1.72-.54-2.68-2.38-2.14-4.1s2.38-2.68,4.1-2.14c0,0,0,0,0,0,1.72,.54,2.67,2.38,2.12,4.09,0,0,0,0,0,0h.01Zm-2-4.53c-1.96-.62-4.05,.47-4.67,2.43-.62,1.96,.47,4.05,2.43,4.67,1.96,.62,4.05-.47,4.67-2.43,0,0,0,0,0,0,.61-1.96-.47-4.04-2.43-4.66Zm2,4.53c-.54,1.72-2.38,2.68-4.1,2.14-1.72-.54-2.68-2.38-2.14-4.1s2.38-2.68,4.1-2.14c0,0,0,0,0,0,1.72,.54,2.67,2.38,2.12,4.09,0,0,0,0,0,0h.01Z" fill="#263238"/><polygon points="219.69 114.92 216.82 114.01 216.34 116.09 218.89 116.9 219.69 114.92" fill="#263238"/><polygon points="214.52 112.22 213.13 109.55 211.32 110.68 212.55 113.06 214.52 112.22" fill="#263238"/><polygon points="212.77 106.66 213.68 103.79 211.59 103.3 210.79 105.86 212.77 106.66" fill="#263238"/><polygon points="215.47 101.49 218.14 100.1 217.01 98.28 214.63 99.52 215.47 101.49" fill="#263238"/><polygon points="221.03 99.74 223.9 100.65 224.39 98.56 221.83 97.76 221.03 99.74" fill="#263238"/><polygon points="226.2 102.44 227.59 105.11 229.41 103.98 228.17 101.6 226.2 102.44" fill="#263238"/><polygon points="227.95 108 227.04 110.87 229.13 111.36 229.93 108.8 227.95 108" fill="#263238"/><polygon points="225.25 113.17 222.58 114.56 223.71 116.37 226.09 115.14 225.25 113.17" fill="#263238"/><path d="M52.91,46.28c1.54-6.33-2.34-12.7-8.67-14.24-6.33-1.54-12.7,2.34-14.24,8.67-1.54,6.32,2.34,12.7,8.66,14.24,6.33,1.54,12.7-2.33,14.25-8.66h0Zm-6.11-1.5c-.72,2.96-3.7,4.77-6.66,4.04-2.96-.72-4.77-3.7-4.04-6.66,.72-2.96,3.7-4.77,6.66-4.04,.01,0,.03,0,.04,.01,2.94,.75,4.72,3.73,3.99,6.67v-.02Z" fill="#263238"/><polygon points="40.96 55.03 36.55 53.96 36.04 57.14 39.96 58.09 40.96 55.03" fill="#263238"/><polygon points="32.93 51.5 30.58 47.63 27.97 49.51 30.06 52.96 32.93 51.5" fill="#263238"/><polygon points="29.75 43.33 30.83 38.93 27.65 38.41 26.69 42.33 29.75 43.33" fill="#263238"/><polygon points="33.28 35.31 37.16 32.95 35.28 30.34 31.83 32.43 33.28 35.31" fill="#263238"/><polygon points="41.45 32.12 45.86 33.2 46.38 30.02 42.46 29.06 41.45 32.12" fill="#263238"/><polygon points="49.48 35.65 51.84 39.53 54.45 37.65 52.35 34.2 49.48 35.65" fill="#263238"/><polygon points="52.66 43.82 51.59 48.23 54.76 48.75 55.72 44.83 52.66 43.82" fill="#263238"/><polygon points="49.13 51.85 45.26 54.21 47.14 56.82 50.59 54.72 49.13 51.85" fill="#263238"/><path d="M37.77,45.67l3.53,1.94,3.45-2.1-.1-4-3.53-1.93-3.45,2.09,.1,4Zm3.74-3.33c.69,.16,1.11,.85,.95,1.54-.16,.69-.85,1.11-1.54,.95-.69-.16-1.11-.85-.95-1.54,0,0,0,0,0,0,.16-.68,.85-1.1,1.53-.94,0,0,0,0,.01,0Z" fill="#263238"/></svg>